<svg xmlns="http://www.w3.org/2000/svg" xmlns:xlink="http://www.w3.org/1999/xlink" viewBox="0,0,256,256" width="250px" height="250px"><g fill="#6e4b4b" fill-rule="nonzero" stroke="none" stroke-width="1" stroke-linecap="butt" stroke-linejoin="miter" stroke-miterlimit="10" stroke-dasharray="" stroke-dashoffset="0" font-family="none" font-weight="none" font-size="none" text-anchor="none" style="mix-blend-mode: normal"><g transform="scale(5.12,5.12)"><path d="M6,4c-1.09306,0 -2,0.90694 -2,2v38c0,1.09306 0.90694,2 2,2h38c1.09306,0 2,-0.90694 2,-2v-38c0,-1.09306 -0.90694,-2 -2,-2zM6,6h38v38h-38zM19.92773,14l-4.92773,22h2.39844l1.42578,-6.43359h4.80078l1.39063,6.43359h2.43164l-4.79883,-22zM32.73438,14c-0.824,0 -1.48437,0.6255 -1.48437,1.5625c0,0.937 0.62717,1.5625 1.45117,1.5625h0.0332c0.923,0 1.51563,-0.6255 1.51563,-1.5625c0,-0.937 -0.59262,-1.5625 -1.51562,-1.5625zM21.22656,16.43945h0.0957c0.256,1.6 0.54523,3.39173 0.86523,4.92773l1.13477,5.63477l-4.09375,-0.00195l1.10156,-5.59961c0.32,-1.473 0.63948,-3.32894 0.89648,-4.96094zM31.5,19v17h2.5v-17z"></path></g></g></svg>