<svg xmlns="http://www.w3.org/2000/svg" xmlns:xlink="http://www.w3.org/1999/xlink" viewBox="0,0,256,256" width="250px" height="250px"><g fill="#6e4b4b" fill-rule="nonzero" stroke="none" stroke-width="1" stroke-linecap="butt" stroke-linejoin="miter" stroke-miterlimit="10" stroke-dasharray="" stroke-dashoffset="0" font-family="none" font-weight="none" font-size="none" text-anchor="none" style="mix-blend-mode: normal"><g transform="scale(5.12,5.12)"><path d="M24.96875,1.98438c-0.01562,0.00391 -0.02734,0.00391 -0.03516,0.00391c-0.01562,0 -0.03125,0.00391 -0.04687,0.00391c-0.01953,0.00391 -0.03906,0.00781 -0.05859,0.00781c-0.01562,0.00391 -0.03516,0.00781 -0.05078,0.01172c-0.00391,0 -0.01172,0.00391 -0.01562,0.00391c-0.02734,0.00781 -0.05469,0.01563 -0.08203,0.02344c-0.00781,0.00391 -0.01562,0.00391 -0.02344,0.00781c-0.01953,0.00781 -0.03906,0.01563 -0.0625,0.02344c-0.01172,0.00781 -0.02344,0.01172 -0.03516,0.01953c-0.02344,0.01172 -0.04297,0.01953 -0.0625,0.03516c-0.00391,0 -0.00391,0 -0.00391,0c0,0 0,0 -0.00391,0c-0.19531,0.11719 -0.34766,0.30078 -0.42578,0.51563l-17.29297,31.98438c0,0.00391 0,0.00391 -0.00391,0.00391c-0.01953,0.03516 -0.03906,0.07031 -0.05469,0.10547l-2.48437,4.59375c-0.32422,0.37891 -0.32031,0.9375 0.00781,1.3125l4.89844,5.87891c0.19531,0.34766 0.57422,0.54688 0.97266,0.50781l6.75391,0.96094c0.53125,0.07813 1.02734,-0.28125 1.125,-0.80859l1.125,-6.17969h11.78125l1.125,6.17969c0.09766,0.52734 0.59375,0.88672 1.125,0.80859l6.80859,-0.97266c0.37891,0.02344 0.73438,-0.17187 0.92578,-0.5l4.89063,-5.875c0.00781,-0.00781 0.01172,-0.01172 0.01563,-0.01953c0.31641,-0.375 0.3125,-0.92187 -0.00781,-1.29297l-8.98047,-16.61328c-0.03516,-0.08984 -0.07812,-0.17187 -0.13672,-0.24609l-10.71875,-19.83594c-0.11328,-0.29687 -0.35937,-0.52344 -0.66797,-0.60937h-0.00391c-0.0625,-0.01953 -0.12891,-0.03125 -0.19141,-0.03516c-0.00391,0 -0.00391,0 -0.00781,0c-0.03125,-0.00391 -0.06641,-0.00391 -0.09766,-0.00391zM25,8.59375l3.04297,16.73047l-6.59766,2.82422zM27.10938,9l7.33984,13.57813l-4.51953,1.9375zM22.89063,9.00391l-3.65234,20.08984l-9.37891,4.01953zM35.40234,24.34375l7.92188,14.65625h-4.16797c-0.04687,-0.00781 -0.09375,-0.01172 -0.14062,-0.01562c-0.05859,0 -0.12109,0.00391 -0.17969,0.01563h-6.27344l-2.26562,-12.46875zM28.40625,27.34375l2.12109,11.65625h-11.05859l1.54688,-8.48828zM18.80859,31.45703l-1.37109,7.54297h-7.01562l-0.32031,-3.8125zM8.17969,36.21484l0.23438,2.78516h-1.73828zM7.13281,41h1.44531l0.16406,1.92578zM10.58594,41h6.48828l-0.88672,4.875l-5.25781,-0.75zM32.92578,41h5.22656l0.69141,4.15625l-5.03125,0.71875zM40.17969,41h2.68359l-2.23828,2.6875z"></path></g></g></svg>