<svg xmlns="http://www.w3.org/2000/svg" xmlns:xlink="http://www.w3.org/1999/xlink" viewBox="0,0,256,256" width="250px" height="250px"><g fill="#6e4b4b" fill-rule="nonzero" stroke="none" stroke-width="1" stroke-linecap="butt" stroke-linejoin="miter" stroke-miterlimit="10" stroke-dasharray="" stroke-dashoffset="0" font-family="none" font-weight="none" font-size="none" text-anchor="none" style="mix-blend-mode: normal"><g transform="scale(5.12,5.12)"><path d="M25.76953,5.02344c-0.19214,-0.01572 -0.38486,-0.01295 -0.57617,0.00781c-0.76525,0.08307 -1.50019,0.45514 -2.01562,1.0957c-1.03057,1.28226 -0.8241,3.18789 0.45703,4.21875l3.30273,2.6543h-16.97656c-1.64497,0 -3,1.35503 -3,3c0,1.64497 1.35503,3 3,3h7.43555l-14.24023,11.50977c-1.32827,1.07373 -1.53792,3.05194 -0.46484,4.38086c1.07373,1.32827 3.05194,1.53792 4.38086,0.46484l6.99609,-5.65625c0.55878,8.01823 7.93213,14.30078 16.89258,14.30078c9.31831,0 17,-6.77322 17,-15.25c0,-5.38651 -3.13198,-10.09663 -7.77344,-12.79492l-12.79102,-10.28516c-0.00065,0 -0.0013,0 -0.00195,0c-0.48081,-0.38647 -1.04857,-0.59931 -1.625,-0.64648zM25.40625,7.00781c0.2525,-0.02743 0.51646,0.04399 0.73633,0.2207l12.83789,10.32227c0.04061,0.03261 0.08371,0.062 0.12891,0.08789c4.15046,2.38189 6.85156,6.4702 6.85156,11.11133c0,7.26322 -6.64431,13.25 -15,13.25c-8.35569,0 -15,-5.98678 -15,-13.25c0,-0.31874 0.02676,-0.65644 0.05859,-1.02148c0.0351,-0.3997 -0.17208,-0.78168 -0.52624,-0.97025c-0.35416,-0.18857 -0.78673,-0.14723 -1.09876,0.10501l-8.58008,6.93555c-0.48897,0.39347 -1.17257,0.32118 -1.56641,-0.16602c-0.39492,-0.48908 -0.32171,-1.17214 0.16602,-1.56641l16.43945,-13.28906c0.32918,-0.26655 0.45475,-0.71155 0.31346,-1.11086c-0.14129,-0.3993 -0.5188,-0.6663 -0.94237,-0.66649h-10.26367c-0.56503,0 -1,-0.43497 -1,-1c0,-0.56503 0.43497,-1 1,-1h19.81641c0.42422,0.00001 0.80229,-0.26763 0.94327,-0.66773c0.14098,-0.40011 0.0142,-0.84563 -0.31632,-1.11156l-5.51562,-4.43359c-0.43887,-0.35314 -0.50577,-0.96651 -0.15234,-1.40625c0.17657,-0.21943 0.41742,-0.34562 0.66992,-0.37305zM30.96094,18c-5.98241,0 -11,4.17015 -11,9.5c0,5.32985 5.01759,9.5 11,9.5c5.98241,0 11,-4.17015 11,-9.5c0,-5.32985 -5.01759,-9.5 -11,-9.5zM30.96094,20c5.06359,0 9,3.44185 9,7.5c0,4.05815 -3.93641,7.5 -9,7.5c-5.06359,0 -9,-3.44185 -9,-7.5c0,-4.05815 3.93641,-7.5 9,-7.5zM30.96094,22c-3.314,0 -6,2.239 -6,5c0,2.761 2.686,5 6,5c3.314,0 6,-2.239 6,-5c0,-2.761 -2.686,-5 -6,-5zM30.96094,24c2.168,0 4,1.374 4,3c0,1.626 -1.832,3 -4,3c-2.168,0 -4,-1.374 -4,-3c0,-1.626 1.832,-3 4,-3z"></path></g></g></svg>