<svg xmlns="http://www.w3.org/2000/svg" xmlns:xlink="http://www.w3.org/1999/xlink" viewBox="0,0,256,256" width="250px" height="250px"><g fill="#6e4b4b" fill-rule="nonzero" stroke="none" stroke-width="1" stroke-linecap="butt" stroke-linejoin="miter" stroke-miterlimit="10" stroke-dasharray="" stroke-dashoffset="0" font-family="none" font-weight="none" font-size="none" text-anchor="none" style="mix-blend-mode: normal"><g transform="scale(5.33333,5.33333)"><path d="M39,6h-30c-1.657,0 -3,1.343 -3,3v30c0,1.657 1.343,3 3,3h30c1.657,0 3,-1.343 3,-3v-30c0,-1.657 -1.343,-3 -3,-3zM9,9h20.464c-0.78,2.407 -2.604,6.791 -6.655,12.089c-0.149,0.195 -0.279,0.399 -0.422,0.597l-0.978,-2.095c0.25,-1.516 0.131,-4.051 -2.409,-6.591c-1.367,-1.367 -2.635,-2.119 -3.552,-2.529c-0.68,-0.304 -1.441,0.24 -1.39,0.982c0.092,1.348 0.33,3.322 0.942,4.547c1.666,3.332 4.179,4.473 5.352,4.839l1.081,2.27c-3.648,5.881 -4.603,12.569 -4.846,15.891h-7.587zM39,39h-19.408c0.081,-1.049 0.241,-2.426 0.538,-4c0.475,0 1.096,0 1.871,0c1,2 3.089,2.304 7,1c4.025,-1.342 6.25,-4.034 7.279,-5.66c0.401,-0.634 -0.015,-1.465 -0.763,-1.525c-1.853,-0.148 -5.185,-0.148 -8.517,1.185c-5,2 -5,3 -5,3h-1.439c0.797,-3.215 2.19,-6.897 4.63,-10.089c4.634,-6.06 6.103,-11.216 6.576,-13.911h7.233z"></path></g></g></svg>