<svg xmlns="http://www.w3.org/2000/svg" xmlns:xlink="http://www.w3.org/1999/xlink" viewBox="0,0,256,256" width="480px" height="480px"><g fill="#6e4b4b" fill-rule="nonzero" stroke="none" stroke-width="1" stroke-linecap="butt" stroke-linejoin="miter" stroke-miterlimit="10" stroke-dasharray="" stroke-dashoffset="0" font-family="none" font-weight="none" font-size="none" text-anchor="none" style="mix-blend-mode: normal"><g transform="scale(16,16)"><path d="M8,11.568c-4.561,0 -8,-1.534 -8,-3.568c0,-2.034 3.439,-3.568 8,-3.568c4.561,0 8,1.534 8,3.568c0,2.034 -3.439,3.568 -8,3.568zM8,5.432c-4.125,0 -7,1.353 -7,2.568c0,1.215 2.875,2.568 7,2.568c4.125,0 7,-1.353 7,-2.568c0,-1.215 -2.875,-2.568 -7,-2.568z"></path><path d="M5.027,15v0c-0.35,0 -0.668,-0.081 -0.947,-0.242c-0.455,-0.262 -0.783,-0.726 -0.948,-1.343c-0.445,-1.663 0.274,-4.474 1.833,-7.161c1.827,-3.143 4.241,-5.254 6.009,-5.254c0.35,0 0.668,0.081 0.947,0.242c0.454,0.261 0.782,0.725 0.947,1.341c0.445,1.664 -0.274,4.475 -1.834,7.162c-1.824,3.143 -4.238,5.255 -6.007,5.255zM10.974,2c-1.154,0 -3.349,1.667 -5.144,4.757c-1.41,2.43 -2.106,5.002 -1.732,6.4c0.097,0.359 0.258,0.606 0.48,0.734c0.971,0.558 3.526,-1.09 5.591,-4.649c1.411,-2.431 2.107,-5.003 1.733,-6.401c-0.097,-0.358 -0.258,-0.605 -0.479,-0.732c-0.128,-0.073 -0.275,-0.109 -0.449,-0.109z"></path><path d="M10.974,15v0c-1.769,0 -4.183,-2.112 -6.008,-5.254c-1.56,-2.686 -2.279,-5.497 -1.834,-7.161c0.165,-0.617 0.493,-1.082 0.948,-1.343c0.279,-0.161 0.598,-0.242 0.947,-0.242c1.768,0 4.182,2.112 6.007,5.256c1.56,2.687 2.279,5.497 1.833,7.161c-0.165,0.617 -0.492,1.081 -0.946,1.341c-0.279,0.161 -0.598,0.242 -0.947,0.242zM5.027,2c-0.174,0 -0.321,0.036 -0.449,0.109c-0.223,0.128 -0.384,0.375 -0.48,0.735c-0.374,1.398 0.322,3.97 1.733,6.4c1.793,3.089 3.988,4.756 5.143,4.756v0c0.175,0 0.321,-0.036 0.449,-0.109c0.222,-0.127 0.383,-0.374 0.479,-0.733c0.375,-1.398 -0.321,-3.97 -1.732,-6.4c-1.794,-3.091 -3.989,-4.758 -5.143,-4.758z"></path><path d="M9,8c0,0.553 -0.447,1 -1,1c-0.553,0 -1,-0.447 -1,-1c0,-0.553 0.447,-1 1,-1c0.553,0 1,0.447 1,1z"></path><path d="M8,9.5c-0.827,0 -1.5,-0.673 -1.5,-1.5c0,-0.827 0.673,-1.5 1.5,-1.5c0.827,0 1.5,0.673 1.5,1.5c0,0.827 -0.673,1.5 -1.5,1.5zM8,7.5c-0.275,0 -0.5,0.224 -0.5,0.5c0,0.276 0.225,0.5 0.5,0.5c0.275,0 0.5,-0.224 0.5,-0.5c0,-0.276 -0.225,-0.5 -0.5,-0.5z"></path></g></g></svg>