<svg xmlns="http://www.w3.org/2000/svg" xmlns:xlink="http://www.w3.org/1999/xlink" viewBox="0,0,256,256" width="250px" height="250px"><g fill="#6e4b4b" fill-rule="nonzero" stroke="none" stroke-width="1" stroke-linecap="butt" stroke-linejoin="miter" stroke-miterlimit="10" stroke-dasharray="" stroke-dashoffset="0" font-family="none" font-weight="none" font-size="none" text-anchor="none" style="mix-blend-mode: normal"><g transform="scale(5.12,5.12)"><path d="M31.46875,1.9375l-0.40625,0.0625l-26.1875,3.71875l-1.03125,0.125l0.15625,1l3.40625,22.09375l0.03125,0.09375v0.0625l5.8125,18.21875l0.28125,0.9375l0.96875,-0.28125l27.6875,-8.3125l0.625,-0.1875l0.09375,-0.65625l3.09375,-25l0.0625,-0.5625l-0.4375,-0.34375l-13.8125,-10.6875zM30.9375,4.0625l11.71875,9.09375l-10.6875,2.125l-5.34375,-5.75l-0.34375,-0.40625l-0.53125,0.09375l-18.90625,2.875l-0.6875,-4.5625zM25.53125,11.28125l5.34375,5.78125l0.375,0.4375l0.5625,-0.125l5.28125,-1.0625c0.13672,0.39063 0.46875,0.6875 0.90625,0.6875c0.55078,0 1,-0.44922 1,-1c0,-0.02344 0,-0.04297 0,-0.0625l4.84375,-0.96875v0.0625c-0.47266,0.07813 -0.84375,0.47266 -0.84375,0.96875c0,0.40625 0.25,0.75 0.59375,0.90625l-1.71875,13.6875c-0.16016,-0.33984 -0.47656,-0.59375 -0.875,-0.59375c-0.55078,0 -1,0.44922 -1,1c0,0.55078 0.44922,1 1,1c0.30078,0 0.56641,-0.13281 0.75,-0.34375l-0.53125,4.40625c-0.07422,-0.01953 -0.13672,-0.0625 -0.21875,-0.0625c-0.55078,0 -1,0.44922 -1,1c0,0.50781 0.38672,0.90234 0.875,0.96875l-7.96875,2.375c0.04297,-0.11328 0.09375,-0.21484 0.09375,-0.34375c0,-0.55078 -0.44922,-1 -1,-1c-0.55078,0 -1,0.44922 -1,1c0,0.32422 0.16406,0.59766 0.40625,0.78125l-7.40625,2.21875c0,-0.55078 -0.44922,-1 -1,-1c-0.55078,0 -1,0.44922 -1,1c0,0.21094 0.07422,0.40234 0.1875,0.5625l-7.34375,2.1875l-1.6875,-5.25c0.17578,0.29297 0.48047,0.5 0.84375,0.5c0.55078,0 1,-0.44922 1,-1c0,-0.55078 -0.44922,-1 -1,-1c-0.55078,0 -1,0.44922 -1,1l-2.625,-8.21875c0.17188,0.13672 0.38672,0.21875 0.625,0.21875c0.05859,0 0.10156,-0.02344 0.15625,-0.03125l1.28125,4.3125l0.28125,0.90625l0.90625,-0.21875l2.625,-0.625c-0.15234,0.17578 -0.25,0.40625 -0.25,0.65625c0,0.55078 0.44922,1 1,1c0.55078,0 1,-0.44922 1,-1c0,-0.4375 -0.29297,-0.80078 -0.6875,-0.9375l6.21875,-1.5l1.28125,-0.3125l-0.625,-1.125l-0.6875,-1.28125c0.29297,-0.17578 0.5,-0.48047 0.5,-0.84375c0,-0.55078 -0.44922,-1 -1,-1c-0.16406,0 -0.30078,0.05469 -0.4375,0.125l-0.78125,-1.40625l-0.34375,-0.65625l-0.46875,0.09375c0.00781,-0.05469 0.03125,-0.09766 0.03125,-0.15625c0,-0.55078 -0.44922,-1 -1,-1c-0.55078,0 -1,0.44922 -1,1c0,0.20313 0.08594,0.375 0.1875,0.53125l-7.46875,1.5l-0.34375,0.0625c-0.12109,-0.05078 -0.23828,-0.09375 -0.375,-0.09375c-0.47266,0 -0.83203,0.34375 -0.9375,0.78125l-0.6875,-2.125l-0.03125,-0.125v-0.03125l-0.875,-5.65625c0.30469,-0.17187 0.53125,-0.46875 0.53125,-0.84375c0,-0.47266 -0.34375,-0.83203 -0.78125,-0.9375l-0.65625,-4.1875c0.13672,0.07031 0.27344,0.125 0.4375,0.125c0.55078,0 1,-0.44922 1,-1c0,-0.55078 -0.44922,-1 -1,-1c-0.25,0 -0.48047,0.09766 -0.65625,0.25l-0.1875,-1.1875l3.0625,-0.46875c0.18359,0.24219 0.45703,0.40625 0.78125,0.40625c0.42578,0 0.76172,-0.28125 0.90625,-0.65625l4.15625,-0.625c-0.02734,0.09375 -0.0625,0.17969 -0.0625,0.28125c0,0.55078 0.44922,1 1,1c0.55078,0 1,-0.44922 1,-1c0,-0.21094 -0.07422,-0.40234 -0.1875,-0.5625zM23,12c-0.55078,0 -1,0.44922 -1,1c0,0.55078 0.44922,1 1,1c0.55078,0 1,-0.44922 1,-1c0,-0.55078 -0.44922,-1 -1,-1zM14,15c-0.55078,0 -1,0.44922 -1,1c0,0.55078 0.44922,1 1,1c0.55078,0 1,-0.44922 1,-1c0,-0.55078 -0.44922,-1 -1,-1zM20,15c-0.55078,0 -1,0.44922 -1,1c0,0.31641 0.14844,0.59766 0.375,0.78125l-7.9375,1.34375c-0.13672,-0.07031 -0.27344,-0.125 -0.4375,-0.125c-0.30078,0 -0.56641,0.13281 -0.75,0.34375l-0.40625,0.0625l-1.28125,0.21875l0.53125,1.1875l1.78125,4.09375l0.0625,0.125c-0.51953,0.03906 -0.9375,0.44141 -0.9375,0.96875c0,0.55078 0.44922,1 1,1c0.55078,0 1,-0.44922 1,-1c0,-0.1875 -0.06641,-0.35156 -0.15625,-0.5l0.15625,-0.03125l7.625,-1.53125l2.03125,3.375l0.34375,0.625l0.71875,-0.15625l5.46875,-1.21875c0.17969,0.25781 0.47266,0.4375 0.8125,0.4375c0.48438,0 0.87891,-0.35547 0.96875,-0.8125l2.25,-0.5l1.59375,-0.375l-1.03125,-1.25l-0.21875,-0.25c0.25781,-0.17969 0.4375,-0.47266 0.4375,-0.8125c0,-0.55078 -0.44922,-1 -1,-1c-0.26172,0 -0.50781,0.08594 -0.6875,0.25l-1.46875,-1.78125c0.08203,-0.14453 0.15625,-0.29297 0.15625,-0.46875c0,-0.55078 -0.44922,-1 -1,-1c-0.11328,0 -0.21094,0.02734 -0.3125,0.0625l-1.6875,-2.0625c0,-0.55078 -0.44922,-1 -1,-1c-0.47266,0 -0.83203,0.34375 -0.9375,0.78125l-4.25,0.75c0.10156,-0.15625 0.1875,-0.32812 0.1875,-0.53125c0,-0.55078 -0.44922,-1 -1,-1zM25.8125,17.6875l4.375,5.375l-7.21875,1.59375l-2,-3.375l-0.375,-0.59375l-0.6875,0.125l-7.5,1.5625l-1,-2.21875zM35,18c-0.55078,0 -1,0.44922 -1,1c0,0.55078 0.44922,1 1,1c0.55078,0 1,-0.44922 1,-1c0,-0.55078 -0.44922,-1 -1,-1zM41,18c-0.55078,0 -1,0.44922 -1,1c0,0.55078 0.44922,1 1,1c0.55078,0 1,-0.44922 1,-1c0,-0.55078 -0.44922,-1 -1,-1zM38,21c-0.55078,0 -1,0.44922 -1,1c0,0.55078 0.44922,1 1,1c0.55078,0 1,-0.44922 1,-1c0,-0.55078 -0.44922,-1 -1,-1zM17,24c-0.55078,0 -1,0.44922 -1,1c0,0.55078 0.44922,1 1,1c0.55078,0 1,-0.44922 1,-1c0,-0.55078 -0.44922,-1 -1,-1zM35,24c-0.55078,0 -1,0.44922 -1,1c0,0.55078 0.44922,1 1,1c0.55078,0 1,-0.44922 1,-1c0,-0.55078 -0.44922,-1 -1,-1zM41,24c-0.55078,0 -1,0.44922 -1,1c0,0.55078 0.44922,1 1,1c0.55078,0 1,-0.44922 1,-1c0,-0.55078 -0.44922,-1 -1,-1zM14,27c-0.55078,0 -1,0.44922 -1,1c0,0.55078 0.44922,1 1,1c0.55078,0 1,-0.44922 1,-1c0,-0.55078 -0.44922,-1 -1,-1zM26,27c-0.55078,0 -1,0.44922 -1,1c0,0.55078 0.44922,1 1,1c0.55078,0 1,-0.44922 1,-1c0,-0.55078 -0.44922,-1 -1,-1zM32,27c-0.55078,0 -1,0.44922 -1,1c0,0.55078 0.44922,1 1,1c0.55078,0 1,-0.44922 1,-1c0,-0.55078 -0.44922,-1 -1,-1zM38,27c-0.55078,0 -1,0.44922 -1,1c0,0.55078 0.44922,1 1,1c0.55078,0 1,-0.44922 1,-1c0,-0.55078 -0.44922,-1 -1,-1zM29,30c-0.55078,0 -1,0.44922 -1,1c0,0.55078 0.44922,1 1,1c0.55078,0 1,-0.44922 1,-1c0,-0.55078 -0.44922,-1 -1,-1zM35,30c-0.55078,0 -1,0.44922 -1,1c0,0.55078 0.44922,1 1,1c0.55078,0 1,-0.44922 1,-1c0,-0.55078 -0.44922,-1 -1,-1zM20.375,30.34375l1.4375,2.59375l-7.75,1.875l-0.90625,-3.0625zM26,33c-0.55078,0 -1,0.44922 -1,1c0,0.55078 0.44922,1 1,1c0.55078,0 1,-0.44922 1,-1c0,-0.55078 -0.44922,-1 -1,-1zM32,33c-0.55078,0 -1,0.44922 -1,1c0,0.55078 0.44922,1 1,1c0.55078,0 1,-0.44922 1,-1c0,-0.55078 -0.44922,-1 -1,-1zM38,33c-0.55078,0 -1,0.44922 -1,1c0,0.55078 0.44922,1 1,1c0.55078,0 1,-0.44922 1,-1c0,-0.55078 -0.44922,-1 -1,-1zM23,36c-0.55078,0 -1,0.44922 -1,1c0,0.55078 0.44922,1 1,1c0.55078,0 1,-0.44922 1,-1c0,-0.55078 -0.44922,-1 -1,-1zM29,36c-0.55078,0 -1,0.44922 -1,1c0,0.55078 0.44922,1 1,1c0.55078,0 1,-0.44922 1,-1c0,-0.55078 -0.44922,-1 -1,-1zM35,36c-0.55078,0 -1,0.44922 -1,1c0,0.55078 0.44922,1 1,1c0.55078,0 1,-0.44922 1,-1c0,-0.55078 -0.44922,-1 -1,-1zM20,39c-0.55078,0 -1,0.44922 -1,1c0,0.55078 0.44922,1 1,1c0.55078,0 1,-0.44922 1,-1c0,-0.55078 -0.44922,-1 -1,-1zM26,39c-0.55078,0 -1,0.44922 -1,1c0,0.55078 0.44922,1 1,1c0.55078,0 1,-0.44922 1,-1c0,-0.55078 -0.44922,-1 -1,-1zM17,42c-0.55078,0 -1,0.44922 -1,1c0,0.55078 0.44922,1 1,1c0.55078,0 1,-0.44922 1,-1c0,-0.55078 -0.44922,-1 -1,-1z"></path></g></g></svg>