<svg xmlns="http://www.w3.org/2000/svg" xmlns:xlink="http://www.w3.org/1999/xlink" viewBox="0 0 393.46 622.33"><defs><style>.cls-1{fill:#deb994;}.cls-2{fill:#ba9980;}.cls-3{fill:#352e28;}.cls-4{fill:#121211;}.cls-5{fill:#77756a;}.cls-13,.cls-14,.cls-5{opacity:0.44;}.cls-6{fill:#161d35;}.cls-7{fill:url(#Degradado_sin_nombre_8);}.cls-8{fill:#af764f;}.cls-9{fill:#382b21;}.cls-10{fill:#192136;}.cls-11{fill:none;stroke:#fff;stroke-miterlimit:10;stroke-width:5px;}.cls-12{fill:#565f72;}.cls-13{fill:#999788;}.cls-14{fill:#7a786d;}.cls-15{fill:#6a6157;}.cls-16{fill:#73554d;}</style><linearGradient id="Degradado_sin_nombre_8" x1="256.33" y1="331.02" x2="275.35" y2="331.02" gradientTransform="matrix(-1, 0, 0, 1, 424.03, 0)" gradientUnits="userSpaceOnUse"><stop offset="0" stop-color="#fff"/><stop offset="1" stop-color="#89d2db"/></linearGradient></defs><title>face</title><g id="CARA_PERFIL" data-name="CARA PERFIL"><g id="Capa_4" data-name="Capa 4"><path class="cls-1" d="M254.84,575.85S243,551.08,228.6,541.17s-80.77-36.66-80.77-36.66c-20-22.35-3.3-38.2-3.3-38.2,1.32-5.51-9.25-19.82-9.25-19.82s-2.64-8.15,6.16-15c0,0-7.57-4.79-7.24-9.41s-1.32-5,3-24.44c0,0-1.16-4.22-4.63-5.37s-13-5.45-14.78-14.37S124.27,365,130,356.88s17.18-17.84,18.94-24.66,11.23-15.42,8.3-33.69c0,0-.92-4.63,4.91-16.19,0,0,7.26-27.23,9.58-33.57s25.53-71.25,130.55-67.72S457.63,247,463.13,336.84c0,0,4,18.94-11.45,56.81S422.62,457.28,427,500.44,254.84,575.85,254.84,575.85Z" transform="translate(-117.54 -180.91)"/></g><g id="Capa_18" data-name="Capa 18"><path class="cls-2" d="M305.06,431.39s38.33-4.77,71.39-43.79c60.71-71.66,2.51-176-63.2-206,0,0,136.71-.59,149.56,150.67,0,0,4.11,23-12,63.43S428.3,449.18,426.58,474,255.32,575.85,255.32,575.85s-16.88-31.3-30-36.74-48.47-22.55-48.47-22.55l51.82-2.84s69.78-27.72,76.41-82.33" transform="translate(-117.54 -180.91)"/></g><g id="OJOS"><path class="cls-3" d="M176.26,313.82C190.63,314.23,208,334,208,334s-16.69-13-31.72-13.17Z" transform="translate(-117.54 -180.91)"/></g><g id="OJOS_SOMBRA" data-name="OJOS SOMBRA"><path class="cls-4" d="M219.79,332.31s-15.35-30.14-31.65-36c-3.72-1.33-11.07-4-23,1.6-11.28,5.35.19,11.7.19,11.7s25.28-11.62,31.88-.25C204.43,321.74,193.89,318.5,219.79,332.31Z" transform="translate(-117.54 -180.91)"/></g><g id="OREJA"><g id="Capa_17" data-name="Capa 17"><path class="cls-5" d="M321.15,360s52.82-41.17,63.51,12.89a50.31,50.31,0,0,1-9.06,39.45C364.27,428,345.5,448.42,326,446.29c-31.2-3.39-18.31-29.75-18.31-29.75" transform="translate(-117.54 -180.91)"/></g><g id="Anteojo"><path class="cls-6" d="M337,349.05c29.06,6.6,34.57,12.77,34.57,12.77a218.34,218.34,0,0,1,20.25,20.25,1.33,1.33,0,0,0,.46.23c9.3,4.46,9-7.93,8.49-14.47-1.39-17.23-36.85-24.78-52.1-28.91-23-6.24-169.93-36.88-176.58-38.27-.13,0-6.8-1.28-6.94-1.29-8.21-1.07-13-1.18-14.61,6.24l-.48,3.87s-6.66,57.69,10,59.17,16.4-55.53,16.4-55.53" transform="translate(-117.54 -180.91)"/></g><path class="cls-1" d="M319.39,359.73s47.06-40.35,56.58,12.64A53.11,53.11,0,0,1,367.91,411c-10.1,15.31-26.82,35.33-44.19,33.25-27.79-3.32-16.31-29.16-16.31-29.16" transform="translate(-117.54 -180.91)"/><path class="cls-2" d="M327.87,359.75c5.83-10.35,40.2-25.52,37.65,18.34a71.05,71.05,0,0,1-9.46,30.51c-6.92,11.61-18.09,15-29.84,17.84-11.32,2.71-26.75-25.76,1.65-66.69" transform="translate(-117.54 -180.91)"/></g><g id="Capa_8" data-name="Capa 8"><path class="cls-7" d="M164.26,303.5c2.52.76,3.45,1.54,3.45,3.76,0,11.73-.53,53.55-9.65,52.46-10.62-1.26-9.24-26.42-9.24-26.42s-1.67-30,6.56-30.88A19.85,19.85,0,0,1,164.26,303.5Z" transform="translate(-117.54 -180.91)"/></g><g id="BARBA"><path class="cls-8" d="M160.86,445.87s-14.48-6.55-25.54.5" transform="translate(-117.54 -180.91)"/><path class="cls-9" d="M138.46,451.75s5.4,8.05,5.13,14.09c0,0-10.41,9.68-5.18,25.19,2.64,7.83,8.7,14.79,18.75,19.63,21.92,10.57,47,9.41,72.45,2.81,12.9-3.35,66.73-35,60-55.21-11.42-34.16,8.53-105.8,8.53-105.8l-14.33-3.64S261.13,396,198.69,407c-24.44,4.3-37.82-10.07-61.61-9.41-5.06.14-3.31,18.66-3.31,18.66s34.91-3.8,36.34,33.36c0,0-1.93,6.66-8.63,7.49-3.16.39-8.66-4.13-13.39-5.67C143.57,449.9,138.46,451.75,138.46,451.75Z" transform="translate(-117.54 -180.91)"/></g><g id="Buzo"><path class="cls-10" d="M492,801.3c0-4.28-8.37-82.13-13.54-103.7,0,0,46.56-52.52,27.41-193.21,0,0,4.21-19.24-16.68-17.92-20.6,1.3-214.18-104.62-336.39,316.47" transform="translate(-117.54 -180.91)"/><path class="cls-11" d="M463.59,802.94S449.06,679.1,376.86,618.68C346.64,593.39,229.43,545.33,236,802.94" transform="translate(-117.54 -180.91)"/></g><g id="Capa_25" data-name="Capa 25"><path class="cls-12" d="M478.48,697.6s38-49.21,31.84-141.16c0,0,1.29,54.62-133.52-14.11C376.8,542.33,464.49,595.87,478.48,697.6Z" transform="translate(-117.54 -180.91)"/></g><g id="SOMBRAS"><path class="cls-13" d="M219.79,332.31l-16,8.73s-9.38,41.18-38.91,26.2l2.14-2.89s26.42,10.07,22-28.07c0,0-10.56.05-13.29-5.26,0,0,1.11-16.08.79-17.91L337,349.05l-6.32,2.89Z" transform="translate(-117.54 -180.91)"/><g id="Capa_16" data-name="Capa 16"><path class="cls-14" d="M149.69,377.56s17.34,5.68,10,15.05c-3.31,4.2-9.94,3.93-15.22,3.08l-6-1S166.2,396,149.69,377.56Z" transform="translate(-117.54 -180.91)"/><path class="cls-15" d="M138.46,390.66s-7.54-8.89-9.86-7.42a2.61,2.61,0,0,0-1.23,1.74,2.92,2.92,0,0,0,1.71,3.14,5.22,5.22,0,0,0,3.51.59c1.27-.43,4.13,1.36,4.13,1.36" transform="translate(-117.54 -180.91)"/></g></g><g id="Sombas_2" data-name="Sombas 2"><path class="cls-8" d="M160.86,445.87s-14.31-6.55-25.54.5c0,0-2.7-7.67,6.16-15C141.48,431.39,159.59,439.54,160.86,445.87Z" transform="translate(-117.54 -180.91)"/></g><g id="sombas"><path class="cls-16" d="M141.48,431.39s17.85,9,19.38,14.48c.17.59-1.06-24.4-26.59-24.23C134.27,421.64,133.12,425.87,141.48,431.39Z" transform="translate(-117.54 -180.91)"/></g></g></svg>