<?xml version="1.0" encoding="utf-8"?>
<!-- Generator: Adobe Illustrator 23.0.1, SVG Export Plug-In . SVG Version: 6.00 Build 0)  -->
<svg version="1.1" xmlns="http://www.w3.org/2000/svg" xmlns:xlink="http://www.w3.org/1999/xlink" x="0px" y="0px"
	 viewBox="0 0 393.5 622" style="enable-background:new 0 0 393.5 622;" xml:space="preserve">
<style type="text/css">
	.st0{display:none;}
	.st1{display:inline;}
	.st2{fill:#B5AAAA;}
	.st3{fill:#121211;}
</style>
<g id="Capa_1" class="st0">
	<title>face-shadow</title>
	<g id="CARA_PERFIL" class="st1">
		<g id="Capa_4">
			<path class="st2" d="M137.3,394.9c0,0-11.8-24.8-26.2-34.7s-80.8-36.7-80.8-36.7c-20-22.4-3.3-38.2-3.3-38.2
				c1.3-5.5-9.3-19.8-9.3-19.8s-2.6-8.1,6.2-15c0,0-7.6-4.8-7.2-9.4s-1.3-5,3-24.4c0,0-1.1-4.2-4.6-5.4s-13-5.5-14.8-14.4
				s6.4-12.9,12.2-21s17.2-17.9,18.9-24.7s11.2-15.4,8.3-33.7c0,0-0.9-4.6,4.9-16.2c0,0,7.3-27.2,9.6-33.6S79.7-3.4,184.7,0.1
				s155.4,65.9,160.9,155.8c0,0,4,18.9-11.5,56.8c-15.5,37.9-29.1,63.6-24.7,106.8C313.9,362.7,137.3,394.9,137.3,394.9z"/>
		</g>
		<g id="Capa_18">
			<path class="st2" d="M187.5,250.5c0,0,38.3-4.8,71.4-43.8c60.7-71.7,2.5-176-63.2-206c0,0,136.7-0.6,149.6,150.7
				c0,0,4.1,23-12,63.4s-22.5,53.5-24.2,78.3c-1.7,24.8-171.2,101.8-171.2,101.8s-16.9-31.3-30-36.7s-48.5-22.5-48.5-22.5l51.8-2.8
				C111.1,332.8,180.9,305.1,187.5,250.5"/>
		</g>
		<g id="OJOS">
			<path class="st2" d="M58.7,132.9c14.4,0.4,31.8,20.1,31.8,20.1s-16.7-13-31.7-13.2L58.7,132.9z"/>
		</g>
		<g id="OJOS_SOMBRA">
			<path class="st2" d="M102.2,151.4c0,0-15.3-30.1-31.6-36c-3.7-1.3-11.1-4-23,1.6c-11.3,5.4,0.2,11.7,0.2,11.7s25.3-11.6,31.9-0.3
				C86.9,140.8,76.3,137.6,102.2,151.4z"/>
		</g>
		<g id="OREJA">
			<g id="Capa_17">
				<path class="st2" d="M203.6,179.1c0,0,52.8-41.2,63.5,12.9c2.6,13.8-0.6,28.1-9,39.5c-11.3,15.6-30.1,36-49.6,33.9
					c-31.2-3.4-18.3-29.8-18.3-29.8"/>
			</g>
			<g id="Anteojo">
				<path class="st2" d="M219.5,168.1c29.1,6.6,34.6,12.8,34.6,12.8c7.2,6.3,14,13.1,20.3,20.3c0.1,0.1,0.3,0.2,0.5,0.2
					c9.3,4.5,9-7.9,8.5-14.5c-1.4-17.2-36.8-24.8-52.1-28.9c-23-6.2-169.9-36.9-176.6-38.3c-0.1,0-6.8-1.3-6.9-1.3
					c-8.2-1.1-13.1-1.2-14.6,6.2l-0.5,3.9c0,0-6.7,57.7,10,59.2s16.4-55.5,16.4-55.5"/>
			</g>
			<path class="st2" d="M201.9,178.8c0,0,47.1-40.4,56.6,12.6c2.4,13.4-0.5,27.3-8.1,38.6c-10.1,15.3-26.8,35.3-44.2,33.3
				c-27.8-3.3-16.3-29.2-16.3-29.2"/>
			<path class="st2" d="M210.3,178.8c5.8-10.4,40.2-25.5,37.6,18.3c-0.8,10.8-4,21.2-9.5,30.5c-6.9,11.6-18.1,15-29.8,17.8
				C197.4,248.2,181.9,219.8,210.3,178.8"/>
		</g>
		<g id="Capa_8">
			<path class="st2" d="M46.7,122.6c2.5,0.8,3.4,1.5,3.4,3.8c0,11.7-0.5,53.5-9.6,52.5c-10.6-1.3-9.2-26.4-9.2-26.4
				s-1.7-30,6.6-30.9C40.8,121.2,43.9,121.6,46.7,122.6z"/>
		</g>
		<g id="BARBA">
			<path class="st2" d="M43.3,265c0,0-14.5-6.5-25.5,0.5"/>
			<path class="st2" d="M20.9,270.8c0,0,5.4,8,5.1,14.1c0,0-10.4,9.7-5.2,25.2c2.6,7.8,8.7,14.8,18.7,19.6
				c21.9,10.6,47,9.4,72.5,2.8c12.9-3.4,66.7-35,60-55.2c-11.4-34.2,8.5-105.8,8.5-105.8l-14.3-3.6c0,0-22.7,47.2-85.1,58.2
				c-24.4,4.3-37.8-10.1-61.6-9.4c-5.1,0.1-3.3,18.7-3.3,18.7s34.9-3.8,36.3,33.4c0,0-1.9,6.7-8.6,7.5c-3.2,0.4-8.7-4.1-13.4-5.7
				C26,269,20.9,270.8,20.9,270.8z"/>
		</g>
		<g id="Buzo">
			<path class="st2" d="M374.5,620.4c0-4.3-8.4-82.1-13.5-103.7c0,0,46.6-52.5,27.4-193.2c0,0,4.2-19.2-16.7-17.9
				C351.1,306.9,157.5,200.9,35.3,622"/>
		</g>
		<g id="Capa_25">
			<path class="st2" d="M360.9,516.7c0,0,38-49.2,31.8-141.2c0,0,1.3,54.6-133.5-14.1C259.3,361.4,347,415,360.9,516.7z"/>
		</g>
		<g id="SOMBRAS">
			<path class="st2" d="M102.2,151.4l-16,8.7c0,0-9.4,41.2-38.9,26.2l2.1-2.9c0,0,26.4,10.1,22-28.1c0,0-10.6,0-13.3-5.3
				c0,0,1.1-16.1,0.8-17.9l160.5,35.9l-6.3,2.9L102.2,151.4z"/>
			<g id="Capa_16">
				<path class="st2" d="M32.1,196.6c0,0,17.3,5.7,10,15c-3.3,4.2-9.9,3.9-15.2,3.1l-6-1C20.9,213.8,48.7,215.1,32.1,196.6z"/>
				<path class="st2" d="M20.9,209.8c0,0-7.5-8.9-9.9-7.4c-0.6,0.4-1.1,1-1.2,1.7c-0.2,1.3,0.5,2.6,1.7,3.1c1.1,0.6,2.3,0.8,3.5,0.6
					c1.3-0.4,4.1,1.4,4.1,1.4"/>
			</g>
		</g>
		<g id="Sombas_2">
			<path class="st2" d="M43.3,265c0,0-14.3-6.5-25.5,0.5c0,0-2.7-7.7,6.2-15C23.9,250.5,42.1,258.6,43.3,265z"/>
		</g>
		<g id="sombas">
			<path class="st2" d="M23.9,250.5c0,0,17.8,9,19.4,14.5c0.2,0.6-1.1-24.4-26.6-24.2C16.7,240.7,15.6,245,23.9,250.5z"/>
		</g>
	</g>
</g>
<g id="Capa_2">
	<path class="st3" d="M137.3,394.8c0,0-11.8-24.8-26.2-34.7c-14.4-9.9-80.8-36.7-80.8-36.7c-20-22.3-3.3-38.2-3.3-38.2
		c1.3-5.5-9.2-19.8-9.2-19.8s-2.6-8.1,6.2-15c0,0-4.8-4.4-6.5-8.8c-2-5.2-2.6-5.9,2.2-25.1c0,0-1.2-4.2-4.6-5.4
		c-3.5-1.2-13-5.4-14.8-14.4c-1.7-8.9,6.5-12.9,12.2-21.1s17.2-17.8,18.9-24.7c1.8-6.8,11.2-15.4,8.3-33.7c0,0-0.9-4.6,4.9-16.2
		c0,0,7.3-27.2,9.6-33.6C56.5,61.4,79.7-3.5,184.7,0s155.4,66,160.9,155.8c0,0,4,18.9-11.4,56.8c-15.4,37.9-29.1,63.6-24.7,106.8
		C313.9,362.6,137.3,394.8,137.3,394.8z"/>
	<path class="st3" d="M187.5,250.4c0,0,38.3-4.8,71.4-43.8c60.7-71.7,2.5-176-63.2-206c0,0,136.7-0.6,149.6,150.7
		c0,0,4.1,23-12,63.4S310.8,268.2,309,293c-1.7,24.8-171.3,101.9-171.3,101.9s-16.9-31.3-30-36.7c-13.1-5.4-48.5-22.6-48.5-22.6
		l51.8-2.8C111.1,332.7,180.9,305,187.5,250.4"/>
	<path class="st3" d="M58.7,132.8c14.4,0.4,31.8,20.1,31.8,20.1s-16.7-13-31.7-13.2L58.7,132.8z"/>
	<path class="st3" d="M102.3,151.3c0,0-15.3-30.1-31.6-36c-3.7-1.3-11.1-4-23,1.6c-11.3,5.4,0.2,11.7,0.2,11.7s25.3-11.6,31.9-0.2
		C86.9,140.7,76.4,137.5,102.3,151.3z"/>
	<path class="st3" d="M203.6,179c0,0,52.8-41.2,63.5,12.9c2.7,13.7-0.6,27.8-9.1,39.4c-11.3,15.6-30.1,36-49.6,33.9
		c-31.2-3.4-18.3-29.8-18.3-29.8"/>
	<path class="st3" d="M219.5,168c29.1,6.6,34.6,12.8,34.6,12.8s10.2,8.7,20.3,20.3c0.1,0.1,0.3,0.2,0.5,0.2c9.3,4.5,9-7.9,8.5-14.5
		c-1.4-17.2-36.9-24.8-52.1-28.9c-23-6.2-169.9-36.9-176.6-38.3c-0.1,0-6.8-1.3-6.9-1.3c-8.2-1.1-13.1-1.2-14.6,6.2l-0.5,3.9
		c0,0-6.7,57.7,10,59.2S59,132.1,59,132.1"/>
	<path class="st3" d="M201.9,178.7c0,0,47.1-40.4,56.6,12.6c2.4,13.4-0.5,27.3-8.1,38.7c-10.1,15.3-26.8,35.3-44.2,33.3
		c-27.8-3.3-16.3-29.2-16.3-29.2"/>
	<path class="st3" d="M210.3,178.7c5.8-10.3,40.2-25.5,37.6,18.3c-0.6,10.4-4.3,21.9-9.5,30.5c-6.9,11.6-18.1,15-29.8,17.8
		C197.4,248.2,181.9,219.7,210.3,178.7"/>
	<path class="st3" d="M46.7,122.5c2.5,0.8,3.4,1.5,3.4,3.8c0,11.7-0.5,53.5-9.6,52.5c-10.6-1.3-9.2-26.4-9.2-26.4s-1.7-30,6.6-30.9
		C41.5,121,43.8,121.6,46.7,122.5z"/>
	<path class="st3" d="M22.7,273.4c0,0,3.6,5.4,3.3,11.4c0,0-10.4,9.7-5.2,25.2c2.6,7.8,8.7,14.8,18.7,19.6
		c21.9,10.6,47,9.4,72.5,2.8c12.9-3.4,66.7-35,60-55.2c-11.4-34.2,8.5-105.8,8.5-105.8l-14.3-3.6c0,0-22.6,47.2-85.1,58.1
		c-24.4,4.3-38.1-5.9-61.6-9.4c-2.2-0.3-3.5,14.9-3.5,14.9s14.1,11.9,27.5,12.5c6.7,0.3,8.2,0,11.1,3.1c2.5,2.6,3.5,9.7,2,13
		c-1.3,2.9-1.4,5.5-11.1,8.5c-2.2,0.7-13.4,1.3-18,2.3C23.5,271.5,22.7,273.4,22.7,273.4z"/>
	<path class="st3" d="M374.5,620.3c0-4.3-8.4-82.1-13.5-103.7c0,0,46.6-52.5,27.4-193.2c0,0,4.2-19.2-16.7-17.9
		c-20.6,1.3-214.2-104.6-336.4,316.5"/>
	<path class="st3" d="M346.1,621.9c0,0-14.5-123.8-86.7-184.3c-30.2-25.3-147.4-73.4-140.8,184.3"/>
	<path class="st3" d="M360.9,516.6c0,0,38-49.2,31.8-141.2c0,0,1.3,54.6-133.5-14.1C259.3,361.3,347,414.9,360.9,516.6z"/>
	<path class="st3" d="M102.3,151.3l-16,8.7c0,0-9.4,41.2-38.9,26.2l2.1-2.9c0,0,26.4,10.1,22-28.1c0,0-10.6,0.1-13.3-5.3
		c0,0,1.1-16.1,0.8-17.9L219.5,168l-6.3,2.9L102.3,151.3z"/>
	<path class="st3" d="M32.2,196.6c0,0,17.3,5.7,10,15.1c-3.3,4.2-9.9,3.9-15.2,3.1l-6-1C20.9,213.7,48.7,215,32.2,196.6z"/>
	<path class="st3" d="M20.9,209.7c0,0-7.5-8.9-9.9-7.4c-0.8,0.5-1.1,1.1-1.2,1.7c-0.2,1.3,0.5,2.6,1.7,3.1c1,0.5,2.4,0.9,3.5,0.6
		c1.3-0.4,4.1,1.4,4.1,1.4"/>
	<path class="st3" d="M48.6,251.6c0,0-11.5,12.1-30.8,13.9c0,0-2.9-9.4,6.2-15.1C23.9,250.4,37.4,253.1,48.6,251.6z"/>
	<path class="st3" d="M23.6,250.4c0,0,19.4,5.8,25,1.2c0.5-0.4-19-4.3-32.6-15.7C15.9,235.8,15.6,246.3,23.6,250.4z"/>
</g>
</svg>
