<svg xmlns="http://www.w3.org/2000/svg" viewBox="0 0 393.46 622.04"><defs><style>.cls-1{fill:#121211;}.cls-2{fill:#352e28;}</style></defs><title>face-shadow</title><g id="CARA_PERFIL" data-name="CARA PERFIL"><g id="Capa_4" data-name="Capa 4"><path class="cls-1" d="M301.6,575.85s-11.84-24.77-26.23-34.68-80.77-36.66-80.77-36.66c-20-22.35-3.31-38.2-3.31-38.2,1.32-5.51-9.25-19.82-9.25-19.82s-2.64-8.15,6.17-15c0,0-7.57-4.79-7.24-9.41s-1.32-5,3-24.44c0,0-1.15-4.22-4.62-5.37s-13-5.45-14.78-14.37S171,365,176.76,356.88,193.93,339,195.7,332.22s11.23-15.42,8.3-33.69c0,0-.93-4.63,4.91-16.19,0,0,7.26-27.23,9.57-33.57S244,177.52,349,181.05,504.39,247,509.9,336.84c0,0,4,18.94-11.45,56.81s-29.07,63.63-24.66,106.79S301.6,575.85,301.6,575.85Z" transform="translate(-164.3 -180.91)"/></g><g id="Capa_18" data-name="Capa 18"><path class="cls-1" d="M351.83,431.39s38.33-4.77,71.39-43.79c60.7-71.66,2.51-176-63.2-206,0,0,136.71-.59,149.56,150.67,0,0,4.1,23-12,63.43S475.06,449.18,473.34,474,302.09,575.85,302.09,575.85s-16.89-31.3-30-36.74-48.47-22.55-48.47-22.55l51.81-2.84S345.2,486,351.83,431.39" transform="translate(-164.3 -180.91)"/></g><g id="OJOS"><path class="cls-2" d="M223,313.82c14.37.41,31.78,20.14,31.78,20.14s-16.7-13-31.72-13.17Z" transform="translate(-164.3 -180.91)"/></g><g id="OJOS_SOMBRA" data-name="OJOS SOMBRA"><path class="cls-1" d="M266.55,332.31s-15.34-30.14-31.64-36c-3.72-1.33-11.07-4-23,1.6-11.29,5.35.19,11.7.19,11.7S237.42,298,244,309.36C251.2,321.74,240.65,318.5,266.55,332.31Z" transform="translate(-164.3 -180.91)"/></g><g id="OREJA"><g id="Capa_17" data-name="Capa 17"><path class="cls-1" d="M367.91,360s52.83-41.17,63.51,12.89a50.31,50.31,0,0,1-9.05,39.45c-11.33,15.62-30.1,36.05-49.6,33.92-31.19-3.39-18.3-29.75-18.3-29.75" transform="translate(-164.3 -180.91)"/></g><g id="Anteojo"><path class="cls-1" d="M383.77,349.05c29.07,6.6,34.57,12.77,34.57,12.77a219.12,219.12,0,0,1,20.26,20.25c.11.13.31.16.46.23,9.3,4.46,9-7.93,8.48-14.47-1.39-17.23-36.85-24.78-52.1-28.91-23-6.24-169.93-36.88-176.57-38.27-.14,0-6.8-1.28-6.94-1.29-8.21-1.07-13.06-1.18-14.61,6.24l-.48,3.87s-6.66,57.69,10,59.17,16.39-55.53,16.39-55.53" transform="translate(-164.3 -180.91)"/></g><path class="cls-1" d="M366.16,359.73s47.06-40.35,56.58,12.64A53.16,53.16,0,0,1,414.67,411c-10.09,15.31-26.81,35.33-44.18,33.25-27.8-3.32-16.31-29.16-16.31-29.16" transform="translate(-164.3 -180.91)"/><path class="cls-1" d="M374.64,359.75c5.82-10.35,40.2-25.52,37.64,18.34a70.78,70.78,0,0,1-9.46,30.51c-6.92,11.61-18.08,15-29.84,17.84-11.31,2.71-26.75-25.76,1.66-66.69" transform="translate(-164.3 -180.91)"/></g><g id="Capa_8" data-name="Capa 8"><path class="cls-1" d="M211,303.5c2.52.76,3.44,1.54,3.44,3.76,0,11.73-.52,53.55-9.65,52.46-10.61-1.26-9.24-26.42-9.24-26.42s-1.66-30,6.57-30.88A19.85,19.85,0,0,1,211,303.5Z" transform="translate(-164.3 -180.91)"/></g><g id="BARBA"><path class="cls-1" d="M207.63,445.87s-14.48-6.55-25.54.5" transform="translate(-164.3 -180.91)"/><path class="cls-1" d="M185.22,451.75s5.41,8.05,5.14,14.09c0,0-10.41,9.68-5.18,25.19,2.64,7.83,8.7,14.79,18.74,19.63,21.93,10.57,47,9.41,72.46,2.81,12.9-3.35,66.73-35,60-55.21-11.42-34.16,8.53-105.8,8.53-105.8l-14.33-3.64S307.89,396,245.46,407c-24.45,4.3-37.82-10.07-61.62-9.41-5.06.14-3.3,18.66-3.3,18.66s34.9-3.8,36.33,33.36c0,0-1.93,6.66-8.62,7.49-3.16.39-8.66-4.13-13.39-5.67C190.34,449.9,185.22,451.75,185.22,451.75Z" transform="translate(-164.3 -180.91)"/></g><g id="Buzo"><path class="cls-1" d="M538.78,801.3c0-4.28-8.36-82.13-13.54-103.7,0,0,46.57-52.52,27.41-193.21,0,0,4.22-19.24-16.67-17.92-20.61,1.3-214.19-104.62-336.39,316.47" transform="translate(-164.3 -180.91)"/></g><g id="Capa_25" data-name="Capa 25"><path class="cls-1" d="M525.24,697.6s38-49.21,31.85-141.16c0,0,1.29,54.62-133.53-14.11C423.56,542.33,511.26,595.87,525.24,697.6Z" transform="translate(-164.3 -180.91)"/></g><g id="SOMBRAS"><path class="cls-1" d="M266.55,332.31l-16,8.73s-9.38,41.18-38.9,26.2l2.13-2.89s26.42,10.07,22-28.07c0,0-10.56.05-13.29-5.26,0,0,1.11-16.08.78-17.91l160.52,35.94-6.32,2.89Z" transform="translate(-164.3 -180.91)"/><g id="Capa_16" data-name="Capa 16"><path class="cls-1" d="M196.45,377.56s17.34,5.68,10,15.05c-3.3,4.2-9.94,3.93-15.21,3.08l-6-1S213,396,196.45,377.56Z" transform="translate(-164.3 -180.91)"/><path class="cls-1" d="M185.22,390.66s-7.54-8.89-9.85-7.42a2.58,2.58,0,0,0-1.23,1.74,2.93,2.93,0,0,0,1.7,3.14,5.26,5.26,0,0,0,3.52.59c1.27-.43,4.13,1.36,4.13,1.36" transform="translate(-164.3 -180.91)"/></g></g><g id="Sombas_2" data-name="Sombas 2"><path class="cls-1" d="M207.63,445.87s-14.31-6.55-25.54.5c0,0-2.7-7.67,6.16-15C188.25,431.39,206.36,439.54,207.63,445.87Z" transform="translate(-164.3 -180.91)"/></g><g id="sombas"><path class="cls-1" d="M188.25,431.39s17.84,9,19.38,14.48c.16.59-1.06-24.4-26.6-24.23C181,421.64,179.89,425.87,188.25,431.39Z" transform="translate(-164.3 -180.91)"/></g></g></svg>