<svg xmlns="http://www.w3.org/2000/svg" xmlns:xlink="http://www.w3.org/1999/xlink" viewBox="0 0 393.45 689.42"><defs><style>.cls-1{fill:#deb994;}.cls-2{fill:#ba9980;}.cls-3{fill:#352e28;}.cls-4{fill:#121211;}.cls-17,.cls-5{fill:#77756a;}.cls-12,.cls-13,.cls-5{opacity:0.44;isolation:isolate;}.cls-6{fill:#161d35;}.cls-7{fill:url(#Degradado_sin_nombre_2);}.cls-8{fill:#382b21;}.cls-9{fill:#192136;}.cls-10{fill:none;stroke:#fff;stroke-miterlimit:10;stroke-width:5px;}.cls-11{fill:#565f72;}.cls-12,.cls-19{fill:#999788;}.cls-13,.cls-20{fill:#7a786d;}.cls-14{fill:#6a6157;}.cls-15{fill:#af764f;}.cls-16{fill:#73554d;}.cls-17,.cls-19,.cls-20{opacity:0.44;}.cls-18{fill:url(#Degradado_sin_nombre_8);}.cls-21{fill:#f4f4f4;}.cls-22{fill:#ddd;}.cls-23{fill:#fff;}</style><linearGradient id="Degradado_sin_nombre_2" x1="-26.6" y1="438.1" x2="-7.57" y2="438.1" gradientTransform="matrix(-1, 0, 0, 1, 24.03, -220)" gradientUnits="userSpaceOnUse"><stop offset="0" stop-color="#fff"/><stop offset="1" stop-color="#89d2db"/></linearGradient><linearGradient id="Degradado_sin_nombre_8" x1="1281.05" y1="218.09" x2="1300.01" y2="218.09" gradientTransform="matrix(-1, 0, 0, 1, 1332.03, 0)" xlink:href="#Degradado_sin_nombre_2"/></defs><title>face-architect</title><g id="Capa_1" data-name="Capa 1"><g id="CARA_PERFIL" data-name="CARA PERFIL"><g id="Capa_4" data-name="Capa 4"><path class="cls-1" d="M137.76,462.93s-11.84-24.77-26.23-34.68-80.78-36.66-80.78-36.66c-20-22.35-3.3-38.2-3.3-38.2,1.32-5.5-9.25-19.83-9.25-19.83s-2.64-8.14,6.17-15c0,0-4.83-4.44-6.51-8.77-2-5.16-2.6-5.94,2.24-25.09,0,0-1.16-4.21-4.62-5.36S2.43,273.92.7,265s6.5-12.91,12.22-21.06,17.17-17.83,18.94-24.66,11.23-15.41,8.31-33.68c0,0-.93-4.63,4.91-16.19,0,0,7.26-27.24,9.58-33.58S80.19,64.59,185.22,68.1s155.33,66,160.83,155.82c0,0,4,18.94-11.45,56.81s-29.06,63.63-24.66,106.79S137.76,462.93,137.76,462.93Z" transform="translate(-0.47 -0.89)"/></g><g id="Capa_18" data-name="Capa 18"><path class="cls-2" d="M188,318.47s38.33-4.78,71.39-43.8c60.71-71.66,2.51-176-63.2-205.95,0,0,136.71-.6,149.56,150.67,0,0,4.11,23-12,63.42s-22.53,53.45-24.25,78.24S138.23,462.92,138.23,462.92s-16.88-31.3-30-36.74-48.47-22.56-48.47-22.56l51.81-2.84s69.81-27.7,76.43-82.31" transform="translate(-0.47 -0.89)"/></g><g id="OJOS"><path class="cls-3" d="M59.18,200.9C73.55,201.31,91,221,91,221s-16.69-13-31.72-13.16Z" transform="translate(-0.47 -0.89)"/></g><g id="OJOS_SOMBRA" data-name="OJOS SOMBRA"><path class="cls-4" d="M102.71,219.39s-15.35-30.14-31.65-36c-3.72-1.34-11.07-4-23,1.59-11.29,5.36.19,11.69.19,11.69s25.28-11.61,31.88-.24C87.35,208.82,76.81,205.58,102.71,219.39Z" transform="translate(-0.47 -0.89)"/></g><g id="OREJA"><g id="Capa_17" data-name="Capa 17"><path class="cls-5" d="M204.07,247.11s52.82-41.18,63.51,12.89a50.27,50.27,0,0,1-9.05,39.44c-11.33,15.62-30.1,36.05-49.6,33.93-31.2-3.4-18.31-29.75-18.31-29.75" transform="translate(-0.47 -0.89)"/></g><g id="Anteojo"><path class="cls-6" d="M219.93,236.13C249,242.74,254.5,248.9,254.5,248.9a218.52,218.52,0,0,1,20.26,20.26c.11.13.31.15.46.23,9.3,4.46,9-7.93,8.48-14.47-1.39-17.23-36.85-24.78-52.1-28.91-23-6.25-169.93-36.89-176.57-38.26l-6.94-1.3c-8.21-1.06-13.06-1.17-14.61,6.25L33,196.57s-6.66,57.69,10,59.17,16.4-55.53,16.4-55.53" transform="translate(-0.47 -0.89)"/></g><path class="cls-1" d="M202.31,246.81s47.06-40.36,56.58,12.63a53.14,53.14,0,0,1-8.07,38.66c-10.1,15.31-26.82,35.33-44.19,33.25-27.79-3.33-16.31-29.16-16.31-29.16" transform="translate(-0.47 -0.89)"/><path class="cls-2" d="M210.79,246.83c5.83-10.34,40.2-25.52,37.65,18.35A70.82,70.82,0,0,1,239,295.69c-6.92,11.61-18.09,15-29.84,17.84-11.32,2.7-26.75-25.77,1.65-66.7" transform="translate(-0.47 -0.89)"/></g><g id="Capa_8" data-name="Capa 8"><path class="cls-7" d="M47.18,190.58c2.52.76,3.45,1.54,3.45,3.77,0,11.73-.52,53.55-9.65,52.46-10.61-1.26-9.24-26.42-9.24-26.42s-1.66-30,6.57-30.88A19.67,19.67,0,0,1,47.18,190.58Z" transform="translate(-0.47 -0.89)"/></g><g id="BARBA"><path class="cls-8" d="M23.2,341.48s3.58,5.39,3.31,11.44c0,0-10.41,9.67-5.18,25.19C24,385.93,30,392.9,40.08,397.74c21.92,10.57,47,9.41,72.45,2.81,12.9-3.35,66.73-35,60-55.21-11.42-34.16,8.53-105.8,8.53-105.8l-14.33-3.64S144.05,283.07,81.61,294c-24.44,4.29-38.06-5.93-61.61-9.41-2.23-.33-3.54,14.93-3.54,14.93s14.08,11.91,27.46,12.49c6.65.29,8.17,0,11.15,3.06,2.51,2.58,3.51,9.68,2,13-1.29,2.89-1.43,5.52-11.12,8.48-2.22.68-13.44,1.3-18,2.26C24,339.62,23.2,341.48,23.2,341.48Z" transform="translate(-0.47 -0.89)"/></g><g id="Buzo"><path class="cls-9" d="M374.94,688.37c0-4.28-8.37-82.13-13.54-103.71,0,0,46.57-52.51,27.41-193.21,0,0,4.21-19.24-16.68-17.92C351.53,374.83,158,268.92,35.74,690" transform="translate(-0.47 -0.89)"/><path class="cls-10" d="M346.51,690S332,566.18,259.79,505.76C229.57,480.46,112.35,432.4,119,690" transform="translate(-0.47 -0.89)"/></g><g id="Capa_25" data-name="Capa 25"><path class="cls-11" d="M361.4,584.67s38-49.21,31.85-141.15c0,0,1.29,54.62-133.53-14.1C259.72,429.4,347.41,483,361.4,584.67Z" transform="translate(-0.47 -0.89)"/></g><g id="SOMBRAS"><path class="cls-12" d="M102.71,219.39l-16,8.73s-9.38,41.18-38.91,26.21l2.14-2.9s26.42,10.07,22-28.07c0,0-10.56.06-13.29-5.26,0,0,1.11-16.07.79-17.9l160.52,35.93L213.61,239Z" transform="translate(-0.47 -0.89)"/><g id="Capa_16" data-name="Capa 16"><path class="cls-13" d="M32.61,264.64s17.34,5.69,10,15.05c-3.31,4.2-9.94,3.93-15.22,3.08l-6-1S49.12,283.06,32.61,264.64Z" transform="translate(-0.47 -0.89)"/><path class="cls-14" d="M21.38,277.74s-7.54-8.89-9.85-7.42a2.56,2.56,0,0,0-1.23,1.74A2.93,2.93,0,0,0,12,275.2a5.2,5.2,0,0,0,3.52.58c1.27-.42,4.13,1.36,4.13,1.36" transform="translate(-0.47 -0.89)"/></g></g><g id="Sombas_2" data-name="Sombas 2"><path class="cls-15" d="M49,319.63A52.6,52.6,0,0,1,18.2,333.56a13.55,13.55,0,0,1,6.21-15.1S37.81,321.23,49,319.63Z" transform="translate(-0.47 -0.89)"/></g><g id="sombas"><path class="cls-16" d="M24.05,318.47s19.4,5.78,25,1.16c.47-.39-18.95-4.26-32.64-15.71C16.37,303.92,16,314.35,24.05,318.47Z" transform="translate(-0.47 -0.89)"/></g></g></g><g id="Capa_2" data-name="Capa 2"><path class="cls-1" d="M137.78,462.92s-11.8-24.77-26.14-34.68-80.46-36.66-80.46-36.66c-20-22.35-3.29-38.2-3.29-38.2,1.31-5.51-9.22-19.82-9.22-19.82s-2.63-8.15,6.15-15c0,0-4.82-4.45-6.49-8.77-2-5.16-2.59-5.93,2.24-25.08,0,0-1.16-4.22-4.61-5.37S3,273.92,1.24,265,7.71,252.09,13.41,244s17.11-17.84,18.86-24.66,11.19-15.42,8.28-33.69c0,0-.93-4.63,4.88-16.19,0,0,7.24-27.22,9.55-33.57S80.41,64.59,185,68.12s154.76,65.95,160.24,155.79c0,0,4,18.94-11.4,56.81s-28.95,63.63-24.57,106.79S137.78,462.92,137.78,462.92Z" transform="translate(-0.47 -0.89)"/><path class="cls-2" d="M187.81,318.46s38.18-4.77,71.12-43.79c60.47-71.66,2.5-176-63-206,0,0,136.19-.59,149,150.67,0,0,4.09,23-11.94,63.43s-22.45,53.44-24.16,78.24-170.6,101.87-170.6,101.87-16.82-31.3-29.91-36.74-48.28-22.55-48.28-22.55l51.61-2.84s69.53-27.72,76.13-82.33" transform="translate(-0.47 -0.89)"/><path class="cls-3" d="M59.5,200.89C73.81,201.3,91.16,221,91.16,221s-16.63-13-31.6-13.17Z" transform="translate(-0.47 -0.89)"/><path class="cls-4" d="M102.86,219.38s-15.29-30.14-31.52-36c-3.71-1.33-11-4-22.88,1.6-11.24,5.35.2,11.7.2,11.7s25.18-11.62,31.75-.25C87.56,208.81,77.06,205.57,102.86,219.38Z" transform="translate(-0.47 -0.89)"/><path class="cls-17" d="M203.83,247.1S256.46,205.93,267.1,260a50.45,50.45,0,0,1-9,39.45c-11.29,15.62-30,36.05-49.41,33.92-31.07-3.39-18.23-29.75-18.23-29.75" transform="translate(-0.47 -0.89)"/><path class="cls-6" d="M219.63,236.12c29,6.6,34.44,12.77,34.44,12.77a218.62,218.62,0,0,1,20.18,20.25c.11.13.31.16.46.23,9.26,4.46,9-7.93,8.45-14.47-1.38-17.23-36.71-24.78-51.9-28.91C208.32,219.75,62,189.11,55.36,187.72c-.14,0-6.77-1.28-6.91-1.29-8.18-1.07-13-1.18-14.56,6.24l-.48,3.87s-6.63,57.69,10,59.17,16.34-55.53,16.34-55.53" transform="translate(-0.47 -0.89)"/><path class="cls-1" d="M202.09,246.8s46.88-40.35,56.36,12.64a53.34,53.34,0,0,1-8,38.65c-10.06,15.31-26.71,35.33-44,33.25-27.69-3.32-16.25-29.16-16.25-29.16" transform="translate(-0.47 -0.89)"/><path class="cls-2" d="M210.53,246.82c5.8-10.35,40.05-25.52,37.5,18.34a71,71,0,0,1-9.42,30.51c-6.9,11.61-18,15-29.72,17.84-11.28,2.71-26.65-25.76,1.64-66.69" transform="translate(-0.47 -0.89)"/><path class="cls-18" d="M47.55,190.57c2.51.76,3.43,1.54,3.43,3.76,0,11.73-.52,53.55-9.61,52.46-10.58-1.26-9.21-26.42-9.21-26.42s-1.65-30,6.54-30.88A19.72,19.72,0,0,1,47.55,190.57Z" transform="translate(-0.47 -0.89)"/><path class="cls-8" d="M23.66,341.47s3.57,5.4,3.3,11.44c0,0-10.38,9.68-5.16,25.19,2.63,7.83,8.66,14.79,18.67,19.63,21.84,10.57,46.84,9.41,72.18,2.81,12.85-3.35,66.47-35,59.73-55.21-11.38-34.16,8.5-105.8,8.5-105.8l-14.28-3.64S144,283.06,81.84,294c-24.34,4.3-37.91-5.93-61.37-9.41-2.22-.33-3.53,14.93-3.53,14.93S31,311.45,44.3,312c6.62.29,8.14,0,11.1,3.06,2.5,2.58,3.49,9.68,2,13-1.29,2.89-1.43,5.52-11.08,8.48-2.21.68-13.39,1.3-17.93,2.26C24.43,339.62,23.66,341.47,23.66,341.47Z" transform="translate(-0.47 -0.89)"/><path class="cls-9" d="M374.05,688.37c0-4.28-8.34-82.13-13.49-103.7,0,0,46.39-52.52,27.31-193.21,0,0,4.19-19.24-16.62-17.92C350.73,374.84,157.89,268.92,36.15,690" transform="translate(-0.47 -0.89)"/><path class="cls-10" d="M345.73,690s-14.48-123.84-86.39-184.26C229.23,480.46,112.46,432.4,119,690" transform="translate(-0.47 -0.89)"/><path class="cls-11" d="M360.56,584.67s37.84-49.21,31.73-141.16c0,0,1.28,54.62-133-14.11C259.27,429.4,346.63,482.94,360.56,584.67Z" transform="translate(-0.47 -0.89)"/><path class="cls-19" d="M102.86,219.38l-15.93,8.73s-9.34,41.18-38.76,26.2l2.13-2.89s26.32,10.07,21.88-28.07c0,0-10.52.05-13.24-5.26,0,0,1.11-16.07.79-17.91l159.9,35.94L213.34,239Z" transform="translate(-0.47 -0.89)"/><path class="cls-20" d="M33,264.63S50.3,270.32,43,279.68c-3.29,4.2-9.9,3.93-15.16,3.08l-6-1S49.48,283.05,33,264.63Z" transform="translate(-0.47 -0.89)"/><path class="cls-14" d="M21.84,277.73s-7.51-8.89-9.81-7.41a2.54,2.54,0,0,0-1.23,1.73,2.93,2.93,0,0,0,1.7,3.14,5.19,5.19,0,0,0,3.5.59c1.26-.43,4.11,1.36,4.11,1.36" transform="translate(-0.47 -0.89)"/><path class="cls-15" d="M49.37,319.62a52.39,52.39,0,0,1-30.7,13.94,13.59,13.59,0,0,1,6.19-15.1S38.21,321.22,49.37,319.62Z" transform="translate(-0.47 -0.89)"/><path class="cls-16" d="M24.5,318.46s19.33,5.78,24.87,1.16c.47-.39-18.88-4.26-32.51-15.71C16.86,303.91,16.52,314.34,24.5,318.46Z" transform="translate(-0.47 -0.89)"/><path class="cls-21" d="M374,251.86a7.69,7.69,0,0,1-9.88,9.17L8.4,142.31a5.49,5.49,0,0,1,.4-10.52L43.52,123S86-28.09,242.33,5.86C404.32,41,365,215.42,365,215.42Z" transform="translate(-0.47 -0.89)"/><path class="cls-22" d="M253.91,8.7s47.07,55.74,29.46,101C251,193,100.23,173,50.11,156.23L364.1,261a7.71,7.71,0,0,0,9.89-9.18l-9-36.43S403,48.74,253.91,8.7Z" transform="translate(-0.47 -0.89)"/><path class="cls-23" d="M45.42,140.24l-.33-12.64c0-.82-.44-1.36-1-1.23l-33.87,8.28c-1.22.3-1.51,3.12-.34,3.27l34.2,4.37C44.78,142.37,45.45,141.33,45.42,140.24Z" transform="translate(-0.47 -0.89)"/><path class="cls-23" d="M221.31,11.86l20.57,26a1.11,1.11,0,0,1-1.09,1.77c-15.87-3.4-90.46-17.74-128.32,3.81a1.1,1.1,0,0,1-1.3-1.75c14.47-14,51.49-41.79,109.49-30.21A1.11,1.11,0,0,1,221.31,11.86Z" transform="translate(-0.47 -0.89)"/></g></svg>