<?xml version="1.0" encoding="utf-8"?>
<!-- Generator: Adobe Illustrator 23.0.1, SVG Export Plug-In . SVG Version: 6.00 Build 0)  -->
<svg version="1.1" xmlns="http://www.w3.org/2000/svg" xmlns:xlink="http://www.w3.org/1999/xlink" x="0px" y="0px"
	 viewBox="0 0 393.46 622.33" style="enable-background:new 0 0 393.46 622.33;" xml:space="preserve">
<style type="text/css">
	.st0{display:none;}
	.st1{display:inline;}
	.st2{fill:#DEB994;}
	.st3{fill:#BA9980;}
	.st4{fill:#352E28;}
	.st5{fill:#121211;}
	.st6{opacity:0.44;fill:#77756A;enable-background:new    ;}
	.st7{fill:#161D35;}
	.st8{fill:url(#SVGID_1_);}
	.st9{fill:#AF764F;}
	.st10{fill:#382B21;}
	.st11{fill:#192136;}
	.st12{fill:none;stroke:#FFFFFF;stroke-width:5;stroke-miterlimit:10;}
	.st13{fill:#565F72;}
	.st14{opacity:0.44;fill:#999788;enable-background:new    ;}
	.st15{opacity:0.44;fill:#7A786D;enable-background:new    ;}
	.st16{fill:#6A6157;}
	.st17{fill:#73554D;}
	.st18{display:inline;fill:#352E28;}
	.st19{fill:url(#SVGID_2_);}
</style>
<g id="Capa_1" class="st0">
	<title>face</title>
	<g id="CARA_PERFIL" class="st1">
		<g id="Capa_4">
			<path class="st2" d="M137.3,394.94c0,0-11.84-24.77-26.24-34.68S30.29,323.6,30.29,323.6c-20-22.35-3.3-38.2-3.3-38.2
				c1.32-5.51-9.25-19.82-9.25-19.82s-2.64-8.15,6.16-15c0,0-7.57-4.79-7.24-9.41s-1.32-5,3-24.44c0,0-1.16-4.22-4.63-5.37
				s-13-5.45-14.78-14.37s6.48-12.9,12.21-21.02c5.73-8.12,17.18-17.84,18.94-24.66s11.23-15.42,8.3-33.69c0,0-0.92-4.63,4.91-16.19
				c0,0,7.26-27.23,9.58-33.57S79.72-3.39,184.74,0.14s155.35,65.95,160.85,155.79c0,0,4,18.94-11.45,56.81
				s-29.06,63.63-24.68,106.79S137.3,394.94,137.3,394.94z"/>
		</g>
		<g id="Capa_18">
			<path class="st3" d="M187.52,250.48c0,0,38.33-4.77,71.39-43.79c60.71-71.66,2.51-176-63.2-206c0,0,136.71-0.59,149.56,150.67
				c0,0,4.11,23-12,63.43s-22.51,53.48-24.23,78.3S137.78,394.94,137.78,394.94s-16.88-31.3-30-36.74s-48.47-22.55-48.47-22.55
				l51.82-2.84c0,0,69.78-27.72,76.41-82.33"/>
		</g>
		<g id="OJOS">
			<path class="st4" d="M58.72,132.91c14.37,0.41,31.74,20.18,31.74,20.18s-16.69-13-31.72-13.17L58.72,132.91z"/>
		</g>
		<g id="OJOS_SOMBRA">
			<path class="st5" d="M102.25,151.4c0,0-15.35-30.14-31.65-36c-3.72-1.33-11.07-4-23,1.6c-11.28,5.35,0.19,11.7,0.19,11.7
				s25.28-11.62,31.88-0.25C86.89,140.83,76.35,137.59,102.25,151.4z"/>
		</g>
		<g id="OREJA">
			<g id="Capa_17">
				<path class="st6" d="M203.61,179.09c0,0,52.82-41.17,63.51,12.89c2.64,13.84-0.65,28.15-9.06,39.45
					c-11.33,15.66-30.1,36.08-49.6,33.95c-31.2-3.39-18.31-29.75-18.31-29.75"/>
			</g>
			<g id="Anteojo">
				<path class="st7" d="M219.46,168.14c29.06,6.6,34.57,12.77,34.57,12.77c7.19,6.3,13.95,13.06,20.25,20.25
					c0.14,0.11,0.29,0.18,0.46,0.23c9.3,4.46,9-7.93,8.49-14.47c-1.39-17.23-36.85-24.78-52.1-28.91
					c-23-6.24-169.93-36.88-176.58-38.27c-0.13,0-6.8-1.28-6.94-1.29c-8.21-1.07-13-1.18-14.61,6.24l-0.48,3.87
					c0,0-6.66,57.69,10,59.17s16.4-55.53,16.4-55.53"/>
			</g>
			<path class="st2" d="M201.85,178.82c0,0,47.06-40.35,56.58,12.64c2.37,13.43-0.51,27.27-8.06,38.63
				c-10.1,15.31-26.82,35.33-44.19,33.25c-27.79-3.32-16.31-29.16-16.31-29.16"/>
			<path class="st3" d="M210.33,178.84c5.83-10.35,40.2-25.52,37.65,18.34c-0.8,10.76-4.03,21.19-9.46,30.51
				c-6.92,11.61-18.09,15-29.84,17.84C197.36,248.24,181.93,219.77,210.33,178.84"/>
		</g>
		<g id="Capa_8">
			
				<linearGradient id="SVGID_1_" gradientUnits="userSpaceOnUse" x1="56.32" y1="290.8653" x2="75.3492" y2="290.8653" gradientTransform="matrix(-1 0 0 -1 106.49 440.9798)">
				<stop  offset="0" style="stop-color:#FFFFFF"/>
				<stop  offset="1" style="stop-color:#89D2DB"/>
			</linearGradient>
			<path class="st8" d="M46.72,122.59c2.52,0.76,3.45,1.54,3.45,3.76c0,11.73-0.53,53.55-9.65,52.46
				c-10.62-1.26-9.24-26.42-9.24-26.42s-1.67-30,6.56-30.88C40.84,121.19,43.88,121.56,46.72,122.59z"/>
		</g>
		<g id="BARBA">
			<path class="st9" d="M43.32,264.96c0,0-14.48-6.55-25.54,0.5"/>
			<path class="st10" d="M20.92,270.84c0,0,5.4,8.05,5.13,14.09c0,0-10.41,9.68-5.18,25.19c2.64,7.83,8.7,14.79,18.75,19.63
				c21.92,10.57,47,9.41,72.45,2.81c12.9-3.35,66.73-35,60-55.21c-11.42-34.16,8.53-105.8,8.53-105.8l-14.33-3.64
				c0,0-22.68,47.18-85.12,58.18c-24.44,4.3-37.82-10.07-61.61-9.41c-5.06,0.14-3.31,18.66-3.31,18.66s34.91-3.8,36.34,33.36
				c0,0-1.93,6.66-8.63,7.49c-3.16,0.39-8.66-4.13-13.39-5.67C26.03,268.99,20.92,270.84,20.92,270.84z"/>
		</g>
		<g id="Buzo">
			<path class="st11" d="M374.46,620.39c0-4.28-8.37-82.13-13.54-103.7c0,0,46.56-52.52,27.41-193.21c0,0,4.21-19.24-16.68-17.92
				c-20.6,1.3-214.18-104.62-336.39,316.47"/>
			<path class="st12" d="M346.05,622.03c0,0-14.53-123.84-86.73-184.26c-30.22-25.29-147.43-73.35-140.86,184.26"/>
		</g>
		<g id="Capa_25">
			<path class="st13" d="M360.94,516.69c0,0,38-49.21,31.84-141.16c0,0,1.29,54.62-133.52-14.11
				C259.26,361.42,346.95,414.96,360.94,516.69z"/>
		</g>
		<g id="SOMBRAS">
			<path class="st14" d="M102.25,151.4l-16,8.73c0,0-9.38,41.18-38.91,26.2l2.14-2.89c0,0,26.42,10.07,22-28.07
				c0,0-10.56,0.05-13.29-5.26c0,0,1.11-16.08,0.79-17.91l160.48,35.94l-6.32,2.89L102.25,151.4z"/>
			<g id="Capa_16">
				<path class="st15" d="M32.15,196.65c0,0,17.34,5.68,10,15.05c-3.31,4.2-9.94,3.93-15.22,3.08l-6-1
					C20.93,213.78,48.66,215.09,32.15,196.65z"/>
				<path class="st16" d="M20.92,209.75c0,0-7.54-8.89-9.86-7.42c-0.64,0.38-1.09,1.01-1.23,1.74c-0.21,1.31,0.49,2.61,1.71,3.14
					c1.06,0.6,2.31,0.81,3.51,0.59c1.27-0.43,4.13,1.36,4.13,1.36"/>
			</g>
		</g>
		<g id="Sombas_2">
			<path class="st9" d="M43.32,264.96c0,0-14.31-6.55-25.54,0.5c0,0-2.7-7.67,6.16-15C23.94,250.48,42.05,258.63,43.32,264.96z"/>
		</g>
		<g id="sombas">
			<path class="st17" d="M23.94,250.48c0,0,17.85,9,19.38,14.48c0.17,0.59-1.06-24.4-26.59-24.23
				C16.73,240.73,15.58,244.96,23.94,250.48z"/>
		</g>
	</g>
</g>
<g id="Capa_2">
	<g id="CARA_PERFIL_1_">
		<g id="Capa_4_1_">
			<path class="st2" d="M137.76,395.1c0,0-11.84-24.77-26.23-34.68s-80.78-36.66-80.78-36.66c-20.04-22.35-3.3-38.2-3.3-38.2
				c1.32-5.5-9.25-19.82-9.25-19.82s-2.64-8.15,6.17-14.97c0,0-4.83-4.44-6.51-8.77c-2.01-5.16-2.6-5.94,2.24-25.09
				c0,0-1.16-4.21-4.62-5.37c-3.47-1.16-13.05-5.45-14.78-14.37c-1.73-8.92,6.5-12.91,12.22-21.06s17.17-17.83,18.94-24.66
				c1.76-6.83,11.23-15.41,8.31-33.68c0,0-0.93-4.63,4.91-16.19c0,0,7.26-27.23,9.58-33.58c2.31-6.33,25.53-71.24,130.56-67.72
				s155.33,65.97,160.83,155.81c0,0,3.96,18.94-11.45,56.81s-29.06,63.63-24.66,106.79C314.35,362.84,137.76,395.1,137.76,395.1z"/>
		</g>
		<g id="Capa_18_1_">
			<path class="st3" d="M187.98,250.64c0,0,38.33-4.78,71.39-43.8c60.71-71.66,2.51-175.96-63.2-205.95
				c0,0,136.71-0.6,149.56,150.67c0,0,4.11,23-11.99,63.42c-16.09,40.42-22.53,53.45-24.25,78.24
				c-1.72,24.79-171.26,101.87-171.26,101.87s-16.88-31.3-30.02-36.74S59.74,335.8,59.74,335.8l51.81-2.84
				C111.57,332.97,181.36,305.25,187.98,250.64"/>
		</g>
		<g id="OJOS_1_">
			<path class="st4" d="M59.18,133.07c14.37,0.41,31.78,20.14,31.78,20.14s-16.69-12.97-31.72-13.16L59.18,133.07z"/>
		</g>
		<g id="OJOS_SOMBRA_1_">
			<path class="st5" d="M102.71,151.56c0,0-15.35-30.14-31.65-36c-3.72-1.34-11.07-4.05-22.96,1.59c-11.29,5.36,0.19,11.7,0.19,11.7
				s25.28-11.61,31.88-0.24C87.35,140.99,76.81,137.75,102.71,151.56z"/>
		</g>
		<g id="Ojos_1_" class="st0">
			
				<ellipse transform="matrix(0.0467 -0.9989 0.9989 0.0467 169.5944 476.3894)" class="st18" cx="334.39" cy="149.34" rx="7.95" ry="6.57"/>
		</g>
		<g id="Ojos" class="st0">
			<path class="st18" d="M311.84,153.85c0,0,10.44-17.32,22.78-15.47s1.55,6.59,1.55,6.59S320.54,142.9,311.84,153.85z"/>
			<path class="st18" d="M319.99,155.53c-1.43,1.02,7.93,17.83,18.95,15.82c12.28-2.24,0.44-10.45,0.44-10.45
				S328.68,166.48,319.99,155.53z"/>
		</g>
		<g id="Capa_21">
		</g>
		<g id="OREJA_1_">
			<g id="Capa_17_1_">
				<path class="st6" d="M204.07,179.28c0,0,52.82-41.18,63.51,12.89c2.71,13.72-0.61,27.81-9.05,39.44
					c-11.33,15.62-30.1,36.05-49.6,33.93c-31.2-3.4-18.31-29.75-18.31-29.75"/>
			</g>
			<g id="Anteojo_1_">
				<path class="st7" d="M219.93,168.3c29.06,6.61,34.57,12.77,34.57,12.77s10.21,8.72,20.26,20.26c0.11,0.13,0.31,0.15,0.46,0.23
					c9.3,4.46,9.01-7.93,8.48-14.47c-1.39-17.23-36.85-24.78-52.1-28.91c-23.03-6.24-169.93-36.88-176.57-38.26
					c-0.14-0.03-6.8-1.28-6.94-1.3c-8.21-1.06-13.06-1.17-14.61,6.25L33,128.74c0,0-6.66,57.69,10.02,59.17s16.4-55.53,16.4-55.53"
					/>
			</g>
			<g id="Capa_17_copia">
			</g>
			<path class="st2" d="M202.31,178.98c0,0,47.06-40.36,56.58,12.63c2.42,13.44-0.55,27.26-8.07,38.66
				c-10.1,15.31-26.82,35.33-44.19,33.25c-27.79-3.33-16.31-29.16-16.31-29.16"/>
			<path class="st3" d="M210.79,179c5.83-10.34,40.2-25.52,37.65,18.35c-0.6,10.37-4.3,21.86-9.46,30.51
				c-6.92,11.61-18.09,15.02-29.84,17.84C197.82,248.4,182.39,219.93,210.79,179"/>
		</g>
		<g id="Capa_8_1_">
			
				<linearGradient id="SVGID_2_" gradientUnits="userSpaceOnUse" x1="173.4075" y1="471.6156" x2="192.4347" y2="471.6156" gradientTransform="matrix(-1 0 0 -1 224.0339 621.8898)">
				<stop  offset="0" style="stop-color:#FFFFFF"/>
				<stop  offset="1" style="stop-color:#89D2DB"/>
			</linearGradient>
			<path class="st19" d="M47.18,122.75c2.52,0.76,3.45,1.54,3.45,3.77c0,11.73-0.52,53.55-9.65,52.46
				c-10.61-1.26-9.24-26.42-9.24-26.42s-1.66-29.97,6.57-30.88C41.99,121.27,44.3,121.88,47.18,122.75z"/>
		</g>
		<g id="BARBA_1_">
			<path class="st10" d="M23.2,273.65c0,0,3.58,5.4,3.31,11.44c0,0-10.41,9.68-5.18,25.19c2.64,7.83,8.7,14.79,18.75,19.63
				c21.92,10.57,47.02,9.41,72.45,2.81c12.9-3.35,66.73-34.95,59.96-55.21c-11.42-34.16,8.53-105.8,8.53-105.8l-14.33-3.64
				c0,0-22.64,47.17-85.08,58.14c-24.44,4.29-38.06-5.93-61.61-9.41c-2.23-0.33-3.54,14.93-3.54,14.93s14.08,11.91,27.46,12.49
				c6.65,0.29,8.17,0,11.15,3.06c2.51,2.58,3.51,9.68,2.04,12.96c-1.29,2.89-1.43,5.52-11.12,8.48c-2.22,0.68-13.44,1.3-18,2.26
				C23.98,271.8,23.2,273.65,23.2,273.65z"/>
		</g>
		<g id="Buzo_1_">
			<path class="st11" d="M374.94,620.55c0-4.28-8.37-82.13-13.54-103.71c0,0,46.57-52.51,27.41-193.21c0,0,4.21-19.24-16.68-17.92
				c-20.6,1.3-214.18-104.61-336.39,316.48"/>
			<path class="st12" d="M346.51,622.19c0,0-14.53-123.84-86.72-184.26c-30.22-25.29-147.44-73.35-140.83,184.26"/>
		</g>
		<g id="Capa_25_1_">
			<path class="st13" d="M361.4,516.85c0,0,37.98-49.21,31.85-141.15c0,0,1.29,54.62-133.53-14.11
				C259.72,361.58,347.41,415.12,361.4,516.85z"/>
		</g>
		<g id="SOMBRAS_1_">
			<path class="st14" d="M102.71,151.56l-15.99,8.73c0,0-9.38,41.18-38.91,26.21l2.14-2.9c0,0,26.42,10.07,21.96-28.07
				c0,0-10.56,0.06-13.29-5.26c0,0,1.11-16.07,0.79-17.9l160.52,35.93l-6.32,2.89L102.71,151.56z"/>
			<g id="Capa_16_1_">
				<path class="st15" d="M32.61,196.81c0,0,17.34,5.69,9.97,15.05c-3.31,4.2-9.94,3.93-15.22,3.08l-5.98-0.96
					C21.38,213.98,49.12,215.23,32.61,196.81z"/>
				<path class="st16" d="M21.38,209.91c0,0-7.54-8.89-9.85-7.42c-0.77,0.49-1.12,1.12-1.23,1.74c-0.25,1.29,0.51,2.58,1.71,3.14
					c1.01,0.47,2.43,0.95,3.52,0.58c1.27-0.42,4.13,1.36,4.13,1.36"/>
			</g>
		</g>
		<g id="Sombas_2_1_">
			<path class="st9" d="M49.01,251.8c0,0-11.53,12.06-30.81,13.94c0,0-2.87-9.38,6.21-15.1C24.41,250.64,37.81,253.4,49.01,251.8z"
				/>
		</g>
		<g id="sombas_1_">
			<path class="st17" d="M24.05,250.64c0,0,19.4,5.78,24.96,1.16c0.47-0.39-18.95-4.26-32.64-15.71
				C16.37,236.09,16.04,246.52,24.05,250.64z"/>
		</g>
	</g>
</g>
</svg>
