<?xml version="1.0" encoding="utf-8"?><!-- Uploaded to: SVG Repo, www.svgrepo.com, Generator: SVG Repo Mixer Tools -->
<svg width="800px" height="800px" viewBox="0 0 64 64" fill="none" xmlns="http://www.w3.org/2000/svg">
<path d="M46.08 5.771C43.7336 5.77364 41.4841 6.7069 39.825 8.36603C38.1659 10.0252 37.2327 12.2746 37.23 14.621C37.23 15.5976 37.3922 16.5675 37.71 17.491C38.1504 18.7619 38.8716 19.9172 39.82 20.871C40.6412 21.6947 41.6169 22.3483 42.691 22.7945C43.7652 23.2406 44.9168 23.4705 46.08 23.471C48.4263 23.4683 50.6758 22.5351 52.335 20.876C53.9941 19.2168 54.9273 16.9673 54.93 14.621C54.9273 12.2746 53.9941 10.0252 52.335 8.36603C50.6758 6.7069 48.4263 5.77364 46.08 5.771Z" fill="#999999"/>
<path d="M46.08 40.011C44.9214 40.0102 43.7741 40.2377 42.7034 40.6804C41.6327 41.123 40.6597 41.7723 39.84 42.591C38.8829 43.5436 38.1576 44.7035 37.72 45.981C37.3932 46.9059 37.2275 47.88 37.23 48.861C37.2327 51.2073 38.1659 53.4568 39.825 55.116C41.4841 56.7751 43.7336 57.7084 46.08 57.711C48.4263 57.7084 50.6758 56.7751 52.335 55.116C53.9941 53.4568 54.9273 51.2073 54.93 48.861C54.9273 46.5146 53.9941 44.2651 52.335 42.606C50.6758 40.9469 48.4263 40.0136 46.08 40.011Z" fill="#999999"/>
<path d="M39.84 42.591C38.8829 43.5437 38.1576 44.7035 37.72 45.981L24.92 37.9711C25.8767 37.0163 26.6049 35.8573 27.05 34.5811L39.84 42.591Z" fill="#000000"/>
<path d="M39.82 20.871L27.05 28.851C26.6224 27.5711 25.8996 26.4098 24.94 25.461L37.71 17.491C38.1504 18.7619 38.8716 19.9172 39.82 20.871Z" fill="#000000"/>
<path d="M27.05 28.851C26.6224 27.5711 25.8996 26.4098 24.94 25.461C24.1203 24.6353 23.1449 23.9803 22.0704 23.5341C20.9959 23.0878 19.8435 22.859 18.68 22.861C16.3346 22.8612 14.0853 23.7924 12.4259 25.4498C10.7666 27.1073 9.8329 29.3556 9.82999 31.701C9.83263 34.0473 10.7659 36.2968 12.425 37.9559C14.0841 39.6151 16.3336 40.5483 18.68 40.551C19.8386 40.5517 20.9859 40.3243 22.0566 39.8816C23.1273 39.4389 24.1002 38.7897 24.92 37.971C25.8767 37.0162 26.6049 35.8572 27.05 34.581C27.3686 33.6542 27.5309 32.681 27.53 31.701C27.5309 30.7308 27.3686 29.7674 27.05 28.851Z" fill="#999999"/>
</svg>