<svg xmlns="http://www.w3.org/2000/svg" xmlns:xlink="http://www.w3.org/1999/xlink" viewBox="0,0,256,256" width="250px" height="250px"><g fill="#6e4b4b" fill-rule="nonzero" stroke="none" stroke-width="1" stroke-linecap="butt" stroke-linejoin="miter" stroke-miterlimit="10" stroke-dasharray="" stroke-dashoffset="0" font-family="none" font-weight="none" font-size="none" text-anchor="none" style="mix-blend-mode: normal"><g transform="scale(5.12,5.12)"><path d="M6,4c-1.1,0 -2,0.9 -2,2v38c0,1.1 0.9,2 2,2h38c1.1,0 2,-0.9 2,-2v-38c0,-1.1 -0.9,-2 -2,-2zM19.92969,14h2.7207l4.79883,22h-2.43945l-1.39062,-6.42969h-4.79883l-1.41992,6.42969h-2.40039zM32.73047,14c0.93,0 1.51953,0.63055 1.51953,1.56055c0,0.94 -0.58953,1.57031 -1.51953,1.57031h-0.03125c-0.82,0 -1.44922,-0.63031 -1.44922,-1.57031c0,-0.93 0.66047,-1.56055 1.48047,-1.56055zM21.23047,16.43945c-0.26,1.63 -0.58039,3.49094 -0.90039,4.96094l-1.09961,5.59961h4.08984l-1.13086,-5.63086c-0.32,-1.54 -0.60914,-3.32969 -0.86914,-4.92969zM31.5,19h2.5v17h-2.5z"></path></g></g></svg>