<svg xmlns="http://www.w3.org/2000/svg" xmlns:xlink="http://www.w3.org/1999/xlink" viewBox="0,0,256,256" width="250px" height="250px"><g fill="#6e4b4b" fill-rule="nonzero" stroke="none" stroke-width="1" stroke-linecap="butt" stroke-linejoin="miter" stroke-miterlimit="10" stroke-dasharray="" stroke-dashoffset="0" font-family="none" font-weight="none" font-size="none" text-anchor="none" style="mix-blend-mode: normal"><g transform="scale(5.12,5.12)"><path d="M25.7832,5.01953c-0.19506,-0.01731 -0.39305,-0.01709 -0.5918,0.00391c-0.797,0.087 -1.51167,0.47952 -2.01367,1.10352c-1.037,1.289 -0.83102,3.18175 0.45898,4.21875l3.30078,2.6543h-16.97656c-1.654,0 -3,1.346 -3,3c0,1.654 1.346,3 3,3h7.43555l-14.24023,11.50977c-0.647,0.523 -1.05067,1.26675 -1.13867,2.09375c-0.087,0.827 0.15083,1.64011 0.67383,2.28711c0.523,0.647 1.26675,1.05067 2.09375,1.13867c0.827,0.087 1.64011,-0.15083 2.28711,-0.67383l6.92578,-5.59766c0.579,7.941 7.96589,14.24219 16.96289,14.24219c9.374,0 17,-6.841 17,-15.25c0,-5.196 -2.90911,-9.97864 -7.78711,-12.80664l-12.77734,-10.27344c-0.46875,-0.3765 -1.02809,-0.59845 -1.61328,-0.65039zM30.96094,20c4.962,0 9,3.364 9,7.5c0,4.136 -4.038,7.5 -9,7.5c-4.962,0 -9,-3.364 -9,-7.5c0,-4.136 4.038,-7.5 9,-7.5zM30.96094,22c-3.31371,0 -6,2.23858 -6,5c0,2.76142 2.68629,5 6,5c3.31371,0 6,-2.23858 6,-5c0,-2.76142 -2.68629,-5 -6,-5z"></path></g></g></svg>