<svg xmlns="http://www.w3.org/2000/svg" xmlns:xlink="http://www.w3.org/1999/xlink" viewBox="0,0,256,256" width="250px" height="250px"><g fill="#6e4b4b" fill-rule="nonzero" stroke="none" stroke-width="1" stroke-linecap="butt" stroke-linejoin="miter" stroke-miterlimit="10" stroke-dasharray="" stroke-dashoffset="0" font-family="none" font-weight="none" font-size="none" text-anchor="none" style="mix-blend-mode: normal"><g transform="scale(5.12,5.12)"><path d="M6,4c-1.1,0 -2,0.9 -2,2v38c0,1.1 0.9,2 2,2h38c1.1,0 2,-0.9 2,-2v-38c0,-1.1 -0.9,-2 -2,-2zM18.58008,14c1.99,0 3.68055,0.48031 4.81055,1.57031c1.02,1.02 1.55859,2.59047 1.55859,4.48047c0,1.98 -0.47859,3.32016 -1.30859,4.41016c-1.15,1.6 -3.16984,2.39844 -5.08984,2.39844c-0.41,0 -0.72984,0.0007 -1.08984,-0.0293v9.16992h-2.46094v-21.58008c0.99,-0.26 2.14008,-0.41992 3.58008,-0.41992zM18.98047,15.64063c-0.58,0 -1.06086,0.06016 -1.38086,0.16016v8.60938c0.29,0.03 0.58023,0.06055 0.99023,0.06055c2.4,0 4.0293,-1.60063 4.0293,-4.64062c0,-2.21 -0.88867,-4.18945 -3.63867,-4.18945zM31.71094,20c1.27,0 2.18937,0.39078 2.85937,0.80078l-0.66992,1.86914c-0.63,-0.42 -1.29039,-0.70898 -2.15039,-0.70898c-1.36,0 -2.06055,0.95828 -2.06055,1.98828c0,1.03 0.40023,1.63992 1.99023,2.66992c1.86,1.16 3.32031,2.6 3.32031,4.75c0,3.12 -2.18961,4.63086 -4.84961,4.63086c-1.16,0 -2.45039,-0.35039 -3.15039,-0.90039l0.63086,-1.85937c0.57,0.35 1.55984,0.79883 2.58984,0.79883c1.43,0 2.35938,-0.87 2.35938,-2.25c0,-1.19 -0.43055,-2.01883 -2.06055,-3.04883c-2.09,-1.32 -3.21875,-2.66969 -3.21875,-4.42969c0,-2.54 1.92016,-4.31055 4.41016,-4.31055z"></path></g></g></svg>